<?xml version="1.0" encoding="utf-8"?>
<!-- Generator: Adobe Illustrator 18.0.0, SVG Export Plug-In . SVG Version: 6.00 Build 0)  -->
<!DOCTYPE svg PUBLIC "-//W3C//DTD SVG 1.1//EN" "http://www.w3.org/Graphics/SVG/1.1/DTD/svg11.dtd">
<svg version="1.1" id="Layer_1" xmlns="http://www.w3.org/2000/svg" xmlns:xlink="http://www.w3.org/1999/xlink" x="0px" y="0px"
	 width="482.1px" height="211.6px" viewBox="0 0 482.1 211.6" style="enable-background:new 0 0 482.1 211.6;" xml:space="preserve"
	>
<style type="text/css">
	.st0{clip-path:url(#SVGID_2_);}
	.st1{fill:#E6E6E6;}
	.st2{fill:#FFFFFF;}
	.st3{fill:#F57C00;}
	.st4{fill:#FF9800;}
	.st5{fill:#FFE0B2;}
	.st6{fill:#212121;}
	.st7{fill:#A1B8BF;}
	.st8{fill:#E26D03;}
	.st9{fill:#607D8B;}
	.st10{fill:#727272;}
	.st11{fill:#B6B6B6;}
	.st12{fill:none;stroke:#4D4D4D;stroke-width:5;stroke-linecap:round;stroke-linejoin:round;stroke-miterlimit:10;}
	.st13{fill:#4D4D4D;}
	.st14{fill:none;stroke:#FF931E;stroke-width:2;stroke-miterlimit:10;}
	.st15{fill:#FF931E;}
	.st16{fill:none;stroke:#FF931E;stroke-width:2;stroke-miterlimit:10;stroke-dasharray:3;}
	.st17{fill:none;stroke:#FF931E;stroke-width:2.0821;stroke-miterlimit:10;}
	.st18{fill:none;stroke:#FF931E;stroke-width:2.5882;stroke-miterlimit:10;}
	.st19{fill:none;stroke:#F2F2F2;stroke-width:5;stroke-linecap:round;stroke-linejoin:round;stroke-miterlimit:10;}
	.st20{opacity:0.5;}
	.st21{fill:none;stroke:#FF931E;stroke-width:2;stroke-miterlimit:10;stroke-dasharray:2;}
	.st22{opacity:0.21;fill:#E6E6E6;}
	.st23{opacity:0.19;fill:#F57C00;}
	.st24{fill:none;stroke:#607D8B;stroke-miterlimit:10;}
	.st25{fill:none;stroke:#607D8B;stroke-width:0.5432;stroke-miterlimit:10;}
	.st26{fill:#CCCCCC;}
	.st27{fill:none;stroke:#607D8B;stroke-width:0.5483;stroke-miterlimit:10;}
</style>
<path class="st3" d="M96.3,7.2c-4-3.6-8.9-5.4-14.6-5.4S71,3.6,67.1,7.2C63,10.9,61,15.5,61,20.8c0,5.3,2.1,9.8,6.1,13.5
	c4,3.6,8.9,5.4,14.6,5.4s10.7-1.8,14.6-5.4c4.1-3.7,6.1-8.3,6.1-13.5C102.5,15.5,100.4,10.9,96.3,7.2z M94.7,51.8
	c-3.6-3.2-7.9-4.9-13.1-4.9c-5.1,0-9.5,1.6-13.1,4.9c-3.7,3.3-5.5,7.4-5.5,12.1V151c0,4.9,1.9,9,5.6,12.3c3.6,3.2,8,4.9,13.2,4.9
	c5.1,0,9.3-1.6,12.9-4.9c3.7-3.3,5.3-7.5,5.3-12.3V63.9C100,59.2,98.4,55.1,94.7,51.8z M40.2,142.6c-1.7-1.7-1.9-2.4-1.9-2.5
	c-0.1-0.3-0.2-1.4-0.2-4.1V17.2c0-4.8-1.9-9-5.7-12.3C28.7,1.6,24.3,0,19.1,0C14,0,9.3,1.7,5.7,5C2.1,8.4,0,12.5,0,17.2v121.4
	c0,6.3,0.9,11.2,2.5,15.1c1.6,4,3.7,7.1,6.2,9.3c2.5,2.2,5.4,3.7,8.5,4.4c2.7,0.6,5.4,0.8,7.8,0.8c5.8,0,10.6-1.2,14.1-3.6
	c3.9-2.6,6-6.7,6-11.9c0-2.9-0.6-5.1-1.8-6.7C42.5,145,41.5,143.9,40.2,142.6z M213,63.7c0-5.1-1.6-9.2-5.5-12.3
	c-3.6-2.9-7.8-4.4-12.5-4.4c-3.6,0-7,1-10.4,3c-3.5,2.1-5.9,5.1-7.2,8.8l-11.5,37.1c-1.7,5.7-3,11.4-3.9,17.1
	c-1-5.7-2.4-11.4-4.2-17.2l-12.2-37.2c-1.3-3.7-3.7-6.7-7.1-8.8c-3.3-2-6.8-3.1-10.4-3.1c-4.8,0-9.3,1.5-13,4.4
	c-3.9,3.1-6.1,7.3-6.1,12.3v1.8c0,1,0.5,2.1,1,3.2l30.9,84.4c1.8,5.2,4.5,9.1,7.6,11.5c3.3,2.5,7.8,3.8,13.5,3.8
	c5.5,0,10-1.3,13.2-4c3-2.5,5.6-6.5,7.6-11.8l29.9-83.8c0.4-1.1,0.3-2.2,0.3-3.2V63.7z M476,51.4c-3.8-3-8.1-4.5-12.7-4.5
	c-3.5,0-7,0.9-10.3,2.6c-3.6,1.9-6.1,5-7.5,9.1l-11.9,37.1c-1.2,3.6-2.2,7.3-3.1,11.2c-1-4-2.2-7.8-3.6-11.4l-13.9-37.2
	c-1.5-3.8-3.9-6.8-7.1-8.7c-3.1-1.9-6.5-2.8-10.1-2.8c-5.1,0-9.5,1.5-13.1,4.4c-3.8,3.1-5.7,7.2-5.7,12.1c0,0.9,0.1,1.9,0.3,3
	c0.2,1.1,0.5,2.3,1.1,3.8l33.6,86.7c-2.4,7.7-4.9,13.2-7.4,16.4c-2.2,2.9-5.2,4.5-9.1,4.7c-5.4,0.3-9.8,2.1-13,5.3
	c-3.2,3.2-4.9,7.1-4.9,11.4c0,4.9,1.9,9,5.7,12.2c3.6,3,8.1,4.6,13.3,4.6c9,0,16.6-1.7,22.6-5c6-3.3,11.1-7.9,15.3-13.8
	c4.1-5.7,7.6-12.5,10.6-20.2c2.9-7.6,5.9-15.9,9-24.9l26.9-78.6c0.6-1.5,0.9-3.2,0.9-5.2C482.1,58.8,480.1,54.6,476,51.4z
	 M262,124.1c2.7,0.2,5.6,0.3,8.6,0.3c15.8,0,27.6-3.3,35.1-9.7c7.5-6.6,11.4-15.8,11.4-27.4c0-12.1-4-22.1-11.8-29.7
	c-7.8-7.6-19.6-11.4-35.1-11.4c-8,0-15.2,1.1-21.5,3.2c-6.3,2.1-11.7,5.2-16,9c-4.4,3.9-8,8.5-10.2,13.8c-2.2,5.2-3.6,10.9-3.6,16.9
	V126c0,5.9,1.5,11.5,3.7,16.7c2.3,5.2,5.7,9.7,10,13.5c4.2,3.8,9.5,6.7,15.6,8.9c6,2.1,13,3.2,20.8,3.2c3.6,0,8-0.3,13-0.9
	c5.1-0.6,10-1.7,14.6-3.2c4.8-1.6,9-3.8,12.4-6.6c3.9-3.2,5.9-7.3,5.9-12.2c0-1.7-0.3-3.4-0.8-5.1c-0.6-1.8-1.6-3.6-2.9-5.1
	c-1.4-1.5-3.2-2.8-5.4-3.9c-2.2-1-4.9-1.5-8.1-1.5c-2.3,0-4,0.2-5.4,0.6c-1.2,0.4-2.2,0.7-2.9,1.2c-3.3,1.5-6.4,2.6-9.2,3.4
	c-2.8,0.7-5.8,1.1-9.1,1.1c-5.2,0-9.1-0.9-11.3-2.6c-2-1.5-3-3.5-3-6.3v-3.3C259,123.8,260.5,124,262,124.1z M257,87.8
	c0-3.4,1.1-6,3.2-7.9c2.1-2,5.5-2.9,9.8-2.9c3.4,0,6,0.7,7.6,2.1c1.4,1.2,2.2,3.5,2.2,6.8c0,3.5-0.7,5.8-2.2,6.9c-1.8,1.3-4.5,2-8,2
	c-1.1,0-3.2-0.1-6.1-0.2c-2-0.1-4.5-0.2-6.5-0.4V87.8z M369.4,142.6c-1.7-1.7-2-2.4-2.1-2.5c-0.1-0.3-0.4-1.4-0.4-4.1V17.2
	c0-4.8-1.8-9-5.5-12.3c-3.6-3.2-8-4.9-13.1-4.9c-5.2,0-9.9,1.7-13.5,5c-3.7,3.4-5.8,7.5-5.8,12.2v121.4c0,6.3,1.1,11.2,2.7,15.1
	c1.6,4,3.8,7.1,6.3,9.3c2.5,2.2,5.4,3.7,8.6,4.4c2.7,0.6,5.4,0.8,7.8,0.8c5.8,0,10.6-1.2,14.1-3.6c3.9-2.6,6-6.7,6-11.9
	c0-2.9-0.6-5.1-1.8-6.7C371.8,145,370.7,143.9,369.4,142.6z"/>
</svg>
