<?xml version="1.0" encoding="utf-8"?>
<!-- Generator: Adobe Illustrator 18.0.0, SVG Export Plug-In . SVG Version: 6.00 Build 0)  -->
<!DOCTYPE svg PUBLIC "-//W3C//DTD SVG 1.1//EN" "http://www.w3.org/Graphics/SVG/1.1/DTD/svg11.dtd">
<svg version="1.1" id="Layer_1" xmlns="http://www.w3.org/2000/svg" xmlns:xlink="http://www.w3.org/1999/xlink" x="0px" y="0px"
	 width="19.2px" height="19.2px" viewBox="0 0 19.2 19.2" style="enable-background:new 0 0 19.2 19.2;" xml:space="preserve">
<style type="text/css">
	.st0{fill:#FFFFFF;}
	.st1{fill:#4D4D4D;}
	.st2{fill:#808080;stroke:#4D4D4D;stroke-width:0.2524;stroke-miterlimit:10;}
	.st3{fill:#F57C00;}
	.st4{fill:none;stroke:#FFFFFF;stroke-width:0.8981;stroke-linecap:round;stroke-linejoin:round;stroke-miterlimit:10;}
	.st5{fill:#CCCCCC;}
	.st6{fill:#808080;}
	.st7{fill:#F2F2F2;}
	.st8{fill:#E26D03;}
	.st9{fill:none;stroke:#F57C00;stroke-width:2;stroke-linecap:round;stroke-linejoin:round;stroke-miterlimit:10;}
	.st10{fill:#999999;}
	.st11{fill:#666666;}
	.st12{fill:#DBDBDA;}
	.st13{fill:#B3B3B3;}
	.st14{fill:#39B54A;}
	.st15{fill:#FF1D25;}
	.st16{fill:none;stroke:#FFFFFF;stroke-width:2;stroke-linecap:round;stroke-linejoin:round;stroke-miterlimit:10;}
</style>
<g>
	<g>
		<circle class="st15" cx="9.6" cy="9.6" r="9.6"/>
	</g>
	<g>
		<path class="st0" d="M6.4,7.6c1.7,1.7,3.5,3.5,5.2,5.2c0.7,0.7,1.9-0.4,1.1-1.1C11,9.9,9.3,8.2,7.6,6.4C6.8,5.7,5.7,6.8,6.4,7.6
			L6.4,7.6z"/>
	</g>
	<g>
		<path class="st0" d="M7.6,12.8C9.3,11,11,9.3,12.8,7.6c0.7-0.7-0.4-1.9-1.1-1.1c-1.7,1.7-3.5,3.5-5.2,5.2
			C5.7,12.4,6.8,13.5,7.6,12.8L7.6,12.8z"/>
	</g>
</g>
</svg>
