<?xml version="1.0" encoding="utf-8"?>
<!-- Generator: Adobe Illustrator 18.1.1, SVG Export Plug-In . SVG Version: 6.00 Build 0)  -->
<!DOCTYPE svg PUBLIC "-//W3C//DTD SVG 1.1//EN" "http://www.w3.org/Graphics/SVG/1.1/DTD/svg11.dtd">
<svg version="1.1" xmlns="http://www.w3.org/2000/svg" xmlns:xlink="http://www.w3.org/1999/xlink" x="0px" y="0px"
	 viewBox="0 0 45 45" enable-background="new 0 0 45 45" xml:space="preserve">
<g id="Layer_2">
</g>
<g id="Layer_1">
	<g>
		<path fill="#FFFFFF" d="M34.1,30.7v7.9c0,2-1.7,3.7-3.7,3.7H6.2c-2,0-3.7-1.7-3.7-3.7V14.4c0-2,1.7-3.7,3.7-3.7h8.2v3.5H6.2
			c-0.1,0-0.2,0.1-0.2,0.2v24.1c0,0.1,0.1,0.2,0.2,0.2h24.1c0.1,0,0.2-0.1,0.2-0.2v-7.9H34.1 M14.4,14.3"/>
		<g>
			<path fill="#FFFFFF" d="M40.7,6.4"/>
			<path fill="#FFFFFF" d="M38.8,34.3H14.6c-2,0-3.7-1.7-3.7-3.7V6.4c0-2,1.7-3.7,3.7-3.7h24.1c2,0,3.7,1.7,3.7,3.7v24.1
				C42.5,32.6,40.8,34.3,38.8,34.3z M14.6,6.3c-0.1,0-0.2,0.1-0.2,0.2v24.1c0,0.1,0.1,0.2,0.2,0.2h24.1c0.1,0,0.2-0.1,0.2-0.2V6.4
				c0-0.1-0.1-0.2-0.2-0.2H14.6z"/>
		</g>
	</g>
</g>
</svg>
