<?xml version="1.0" encoding="utf-8"?>
<!-- Generator: Adobe Illustrator 18.1.1, SVG Export Plug-In . SVG Version: 6.00 Build 0)  -->
<!DOCTYPE svg PUBLIC "-//W3C//DTD SVG 1.1//EN" "http://www.w3.org/Graphics/SVG/1.1/DTD/svg11.dtd">
<svg version="1.1" xmlns="http://www.w3.org/2000/svg" xmlns:xlink="http://www.w3.org/1999/xlink" x="0px" y="0px"
	 viewBox="0 0 45 45" enable-background="new 0 0 45 45" xml:space="preserve">
<g id="Layer_2">
</g>
<g id="Layer_1">
	<g>
		<path fill="#FFFFFF" d="M42.3,10.8c-0.1-0.7-0.2-1.4-0.6-2.1c-0.1-0.3-0.3-0.5-0.5-0.7c-1.2-1.4-2.7-2-4.6-1.7
			c-0.5,0.1-1,0.2-1.5,0.4c-0.2,0.1-0.3,0.1-0.3-0.1c0-0.2-0.1-0.4-0.2-0.6c-0.7-1.6-2.1-2.6-4-2.8c-1.6-0.1-2.9,0.3-4,1.4
			c-0.1,0.1-0.1,0.1-0.3,0c-0.1-0.2-0.3-0.3-0.5-0.4c-1.4-1.1-3-1.3-4.7-0.8c-1,0.3-1.8,0.9-2.4,1.7c-0.1,0.1-0.2,0.2-0.3,0
			c0,0-0.1-0.1-0.1-0.1c-1.3-0.9-2.7-1.1-4.2-0.8c-1.5,0.3-2.5,1.2-3.1,2.4c-0.1,0.1-0.1,0.2-0.1,0.3c-0.3,0.7-0.4,1.4-0.4,2.1
			c0,2.6,0,5.1,0,7.7c0,0.2,0,0.3-0.3,0.3c-0.6,0-1.3,0-1.9,0.1c-0.9,0.1-1.7,0.3-2.5,0.8c-1.3,0.8-1.9,1.9-2.3,3.2
			c-0.3,1.2-0.4,2.3-0.5,3.5c0,1.1,0,3.7,0,4.8l0,0.9c-0.1,4.3,1.6,8.5,5.8,10.3c4.1,1.8,10.1,1,14.4,1c3.7,0,7.8-0.1,10.7-0.3
			c6.3-0.4,8.3-6.7,8.4-12.1c0-4.4,0-8.7,0-13.1c0-0.8,0-1.7,0-2.5C42.4,12.7,42.4,11.8,42.3,10.8z M39.8,29.1l0,0.4
			c-0.1,4.9-1.8,9.3-7.1,9.5c0,0,0,0-0.1,0c0,0,0.1,0,0.1,0c-0.1,0-0.4,0-0.6,0c-0.7,0-1.4,0-2.1,0c-2.3,0-4.6,0-6.9,0
			c-3.5,0-7.1,0.2-10.7,0c-5.1-0.3-7.2-4.9-7.1-9.5l0-1c0-2.8,0-1.6,0-4.4c0-1.1,0.1-2.1,0.6-3.1c0.4-0.8,1-1.3,1.9-1.5
			c0.7-0.1,1.3-0.2,2-0.2c0.3,0,0.3,0.1,0.3,0.3c0,1.7,0,3.4,0,5.2c0,0.2,0,0.5,0.2,0.7c0.3,0.5,0.9,0.7,1.4,0.5
			c0.5-0.2,0.9-0.5,0.9-1.1c0-5.2,0-10.3,0-15.5c0-0.5,0.1-1.1,0.3-1.6c0.6-1.3,2.1-1.6,3.3-1.1c0.9,0.4,1.3,1.2,1.3,2.1
			c0,1.6,0,3.2,0,4.8c0,0.2,0,0.4,0.1,0.5c0.2,0.5,0.7,0.8,1.3,0.8c0.6-0.1,1.1-0.5,1.1-1c0-0.8,0-1.6,0-2.4c0-1.1,0-2.3,0-3.4
			c0-0.4,0.1-0.8,0.2-1.2c0.6-1.3,2-1.6,3.2-1.2C24.6,6,25,6.8,25,7.7c0,1.9,0,3.8,0,5.7c0,0.1,0,0.1,0,0.2c0.1,0.7,0.6,1.2,1.3,1.1
			c0.7,0,1.2-0.5,1.2-1.2c0-1.7,0-3.4,0-5.2c0-0.6,0.1-1.2,0.4-1.7c0.8-1.3,2.7-1.6,3.8-0.5c0.5,0.5,0.7,1.1,0.7,1.8
			c0,1.8,0,3.6,0,5.4c0,0.2,0,0.4,0.1,0.5c0.1,0.5,0.7,0.9,1.3,0.8c0.6-0.1,1.1-0.5,1.1-1.1c0-1,0-2,0.1-3c0-1,0.7-2,2-2.2
			c0.7-0.1,1.3,0,1.8,0.4c0.8,0.7,1.1,1.5,1.1,2.5C39.8,17.3,39.8,23.2,39.8,29.1z"/>
		<path fill="#FFFFFF" d="M16.6,42.2C16.6,42.2,16.6,42.2,16.6,42.2c-2.4,0-5.5-0.1-8-1.2c-4-1.7-6.2-5.6-6-10.7l0-0.9
			c0-1.1,0-3.7,0-4.8c0-1.2,0.1-2.4,0.5-3.6c0.5-1.6,1.3-2.7,2.4-3.4c0.7-0.4,1.6-0.7,2.6-0.9c0.8-0.1,1.3-0.1,1.8-0.1
			c0-2.6,0-5.1,0-7.6c0-0.9,0.2-1.6,0.5-2.2l0-0.1c0-0.1,0-0.1,0.1-0.2c0.7-1.4,1.8-2.2,3.4-2.6c1.6-0.4,3.2-0.1,4.5,0.8
			c0,0,0,0,0,0c0.7-0.9,1.5-1.4,2.5-1.7c1.9-0.5,3.6-0.2,5,0.9c0.1,0.1,0.3,0.2,0.4,0.3c1.2-1.1,2.5-1.5,4.1-1.4
			C32.6,3,34,4,34.8,5.8l0,0.1C34.9,6,35,6.2,35,6.3c0.4-0.2,0.9-0.3,1.4-0.4c2-0.3,3.7,0.3,5,1.8C41.6,8,41.9,8.3,42,8.6
			c0.3,0.6,0.5,1.3,0.6,2.1c0.1,1,0.1,2,0,2.9c0,0.7,0,1.4,0,2.2v0.4c0,4.4,0,8.7,0,13.1c-0.1,2.8-0.9,12-8.8,12.5
			c-2.7,0.2-6.7,0.3-10.7,0.3c-0.9,0-1.9,0-3,0.1C19,42.2,17.8,42.2,16.6,42.2z M9.7,17.3c-0.4,0-0.9,0-1.5,0.1
			c-0.9,0.1-1.7,0.4-2.4,0.8c-1,0.6-1.7,1.5-2.1,3c-0.3,1.1-0.4,2.1-0.4,3.4c0,1.1,0,3.7,0,4.8l0,0.9c-0.1,4.8,1.9,8.4,5.6,10
			c1.8,0.8,4.2,1.1,7.7,1.1c0,0,0,0,0,0c1.2,0,2.4,0,3.6-0.1c1.1,0,2.1-0.1,3-0.1c4,0,8-0.1,10.6-0.3c7.3-0.5,8-9.2,8.1-11.8
			c0-4.3,0-8.7,0-13.1v-0.4c0-0.7,0-1.5,0-2.2c0.1-1,0.1-1.9,0-2.8c-0.1-0.8-0.3-1.4-0.6-1.9c-0.1-0.2-0.2-0.4-0.4-0.7
			c-1.1-1.3-2.5-1.8-4.3-1.6c-0.5,0.1-1,0.2-1.4,0.4c-0.1,0.1-0.2,0.1-0.4,0.1c-0.1,0-0.5,0-0.5-0.5c0-0.1-0.1-0.3-0.2-0.4l0-0.1
			c-0.7-1.5-1.9-2.4-3.7-2.5c-1.4-0.1-2.7,0.3-3.7,1.3c-0.1,0.1-0.2,0.2-0.4,0.2c-0.2,0-0.3-0.1-0.4-0.2c-0.1-0.2-0.3-0.3-0.4-0.4
			c-1.3-1-2.7-1.2-4.4-0.7c-0.9,0.2-1.6,0.8-2.2,1.6c0,0.1-0.2,0.3-0.4,0.3c-0.2,0-0.3-0.1-0.4-0.2l-0.1,0c-1.2-0.8-2.5-1-3.9-0.7
			c-1.3,0.3-2.3,1-2.9,2.2l0,0.1c0,0.1-0.1,0.1-0.1,0.2c-0.2,0.5-0.4,1.1-0.4,1.9c0,2.6,0,5.1,0,7.7c0,0.6-0.4,0.6-0.6,0.6
			C9.9,17.3,9.8,17.3,9.7,17.3z M16.1,39.3c-1.3,0-2.5,0-3.6-0.1c-3.5-0.2-7.6-2.9-7.4-9.8l0-1.6c0-1.4,0-1.4,0-2.3L5,24
			c0-1.3,0.2-2.3,0.6-3.3c0.4-0.9,1.2-1.5,2.2-1.7c0.7-0.1,1.4-0.2,2.1-0.2l0.1,0c0.1,0,0.3,0,0.5,0.2c0.2,0.2,0.2,0.3,0.2,0.5
			c0,1.3,0,2.6,0,3.9l0,1.2c0,0.2,0,0.4,0.1,0.5c0.2,0.3,0.6,0.5,1,0.4c0.2-0.1,0.6-0.3,0.6-0.8c0-5.2,0-10.3,0-15.5
			c0-0.5,0-1.1,0.3-1.7c0.4-1,1.4-1.6,2.5-1.6c0.4,0,0.9,0.1,1.2,0.3c1,0.4,1.5,1.3,1.6,2.4c0,1.2,0,2.4,0,3.5l0,1.2
			c0,0.1,0,0.3,0.1,0.4c0.1,0.3,0.5,0.5,0.9,0.5c0.4-0.1,0.8-0.3,0.8-0.7c0-0.3,0-0.7,0-1c0-0.5,0-0.9,0-1.4c0-1.2,0-2.3,0-3.4
			c0-0.5,0.1-0.9,0.3-1.3c0.5-1,1.4-1.6,2.5-1.6c0.4,0,0.8,0.1,1.2,0.2c1,0.4,1.6,1.3,1.7,2.4c0,1.3,0,2.7,0,4l0,1.7
			c0,0.1,0,0.1,0,0.2c0,0.5,0.4,0.8,0.9,0.8c0.5,0,0.9-0.3,0.9-0.8l0-1.1c0-1.4,0-2.7,0-4.1c0-0.6,0.1-1.3,0.4-1.9
			C28.1,5.6,29,5.1,30,5.1c0.8,0,1.5,0.3,2,0.8c0.5,0.5,0.8,1.2,0.8,2.1l0,5.4c0,0.2,0,0.3,0.1,0.4c0.1,0.3,0.5,0.6,0.9,0.5
			c0.4-0.1,0.8-0.4,0.8-0.7c0-0.6,0-1.3,0-1.9c0-0.4,0-0.7,0-1.1c0-1.1,0.8-2.4,2.3-2.5c0.8-0.1,1.5,0.1,2,0.5
			c0.8,0.7,1.2,1.6,1.2,2.8c0,4.8,0,9.6,0,14.4l0,3.7c-0.1,6.3-2.7,9.7-7.4,9.8c0,0-0.1,0-0.1,0l0,0c-0.1,0-0.3,0-0.5,0
			c-0.2,0-0.5,0-0.7,0l-8.3,0c-1.2,0-2.4,0-3.5,0C18.4,39.3,17.2,39.3,16.1,39.3z M9.9,19.6c-0.7,0-1.3,0-1.9,0.2
			c-0.8,0.2-1.3,0.6-1.7,1.3c-0.4,0.8-0.6,1.8-0.6,3l0,1.5c0,0.8,0,0.8,0,2.3l0,1.6c-0.1,4,1.6,8.8,6.7,9.1c1.1,0.1,2.2,0.1,3.5,0.1
			c1.2,0,2.4,0,3.6,0c1.2,0,2.4,0,3.6,0l8.3,0c0.2,0,0.5,0,0.7,0c0.2,0,0.5,0,0.6,0c4.3-0.1,6.6-3.2,6.7-9.1l0-0.4v-3.3
			c0-4.8,0-9.6,0-14.4c0-0.9-0.3-1.6-0.9-2.2c-0.4-0.3-0.9-0.4-1.5-0.3c-1.1,0.1-1.7,1-1.7,1.8c0,0.4,0,0.7,0,1.1c0,0.6,0,1.3,0,1.9
			c0,0.7-0.6,1.3-1.4,1.4c-0.8,0.1-1.5-0.4-1.7-1c-0.1-0.2-0.1-0.4-0.1-0.7l0-5.4c0-0.7-0.2-1.2-0.6-1.5C31.1,6,30.6,5.8,30,5.8
			c-0.8,0-1.5,0.4-1.8,1c-0.3,0.5-0.3,1-0.3,1.6c0,1.3,0,2.7,0,4l0,1.1c0,0.9-0.6,1.5-1.5,1.6c0,0,0,0,0,0c-0.9,0-1.6-0.6-1.7-1.5
			c0-0.1,0-0.1,0-0.2l0-1.7c0-1.3,0-2.7,0-4c0-0.9-0.4-1.5-1.2-1.8c-0.3-0.1-0.6-0.2-0.9-0.2c-0.8,0-1.5,0.4-1.8,1.2
			c-0.1,0.3-0.2,0.6-0.2,1c0,1,0,2.2,0,3.4c0,0.5,0,0.9,0,1.4c0,0.3,0,0.7,0,1c0,0.7-0.6,1.3-1.4,1.4c-0.7,0.1-1.5-0.4-1.7-1
			c-0.1-0.2-0.1-0.4-0.1-0.7l0-1.2c0-1.2,0-2.4,0-3.5c0-0.8-0.4-1.4-1.1-1.8c-0.3-0.1-0.6-0.2-0.9-0.2c-0.8,0-1.5,0.4-1.8,1.2
			c-0.2,0.4-0.2,0.8-0.3,1.4c0,5.2,0,10.3,0,15.5c0,0.7-0.4,1.3-1.1,1.5c-0.7,0.2-1.4-0.1-1.8-0.7c-0.2-0.3-0.2-0.7-0.2-0.9l0-1.2
			C9.9,22.1,9.9,20.8,9.9,19.6z"/>
	</g>
</g>
</svg>
