<?xml version="1.0" encoding="utf-8"?>
<!-- Generator: Adobe Illustrator 18.1.1, SVG Export Plug-In . SVG Version: 6.00 Build 0)  -->
<!DOCTYPE svg PUBLIC "-//W3C//DTD SVG 1.1//EN" "http://www.w3.org/Graphics/SVG/1.1/DTD/svg11.dtd">
<svg version="1.1" xmlns="http://www.w3.org/2000/svg" xmlns:xlink="http://www.w3.org/1999/xlink" x="0px" y="0px"
	 viewBox="0 0 45 45" enable-background="new 0 0 45 45" xml:space="preserve">
<g id="Layer_2">
</g>
<g id="Layer_1">
	<g>
		<g>
			<path fill="#FFFFFF" d="M31.2,24.4c1.4,0,2.8-0.5,3.8-1.5l5.8-5.7c1-1,1.6-2.3,1.6-3.7c0-1.4-0.6-2.7-1.6-3.7l-5.3-5.2
				c-1-1-2.4-1.6-3.8-1.6C30.4,3,29,3.6,28,4.5l-5.8,5.7c-1,1-1.6,2.3-1.6,3.7c0,1.2,0.4,2.4,1.2,3.3l2.7-2.6
				c-0.2-1.1,0.2-2.3,1.1-3.2l3.7-3.6c0.7-0.7,1.6-1,2.5-1c1,0,1.8,0.4,2.5,1l3.2,3.1c0.7,0.7,1,1.5,1,2.5c0,0.9-0.4,1.8-1,2.5
				l-3.7,3.6c-0.8,0.8-2.2,1.3-3.3,1.1l-2.6,2.6C28.8,24,30,24.4,31.2,24.4L31.2,24.4z"/>
			<path fill="#FFFFFF" d="M9.8,22l-5.6,5.5c-1,1-1.6,2.4-1.6,3.8c0,1.4,0.6,2.8,1.6,3.8l5.3,5.3c1,1,2.4,1.6,3.9,1.6
				c1.5,0,2.8-0.6,3.9-1.6l5.6-5.5c1-1,1.6-2.4,1.6-3.8c0-1.2-0.4-2.4-1.2-3.4l-2.7,2.6c0.2,1.1-0.3,2.4-1.2,3.3L15.9,37
				c-0.7,0.7-1.6,1-2.5,1c-1,0-1.9-0.4-2.6-1l-3.2-3.2c-0.7-0.7-1.1-1.6-1.1-2.5c0-1,0.4-1.8,1.1-2.5l3.5-3.4
				c0.9-0.9,2.2-1.3,3.3-1.1l2.7-2.6c-1-0.8-2.2-1.2-3.5-1.2C12.2,20.4,10.8,21,9.8,22z"/>
		</g>
		<path fill="#FFFFFF" d="M16.3,28.7c0.8,0.8,2.1,0.8,2.9,0l9.6-9.6c0.8-0.8,0.8-2.1,0-2.9c-0.8-0.8-2.1-0.8-2.9,0l-9.6,9.6
			C15.5,26.6,15.5,27.9,16.3,28.7L16.3,28.7z M16.3,28.7"/>
	</g>
</g>
</svg>
