<?xml version="1.0" encoding="utf-8"?>
<!-- Generator: Adobe Illustrator 18.1.1, SVG Export Plug-In . SVG Version: 6.00 Build 0)  -->
<!DOCTYPE svg PUBLIC "-//W3C//DTD SVG 1.1//EN" "http://www.w3.org/Graphics/SVG/1.1/DTD/svg11.dtd">
<svg version="1.1" xmlns="http://www.w3.org/2000/svg" xmlns:xlink="http://www.w3.org/1999/xlink" x="0px" y="0px"
	 viewBox="0 0 45 45" enable-background="new 0 0 45 45" xml:space="preserve">
<g id="Layer_2">
</g>
<g id="Layer_1">
	<g>
		<path fill="#FFFFFF" d="M29,18.4c0.7,0,1.3-0.7,1.3-1.6v-3.5c0-3.8-3.6-7.1-7.8-7.1s-7.8,3.2-7.8,7.1v7.1h2.6v-7.1
			c0-2.6,2.3-4.7,5.1-4.7c2.8,0,5.2,2.1,5.2,4.7v3.5C27.7,17.7,28.3,18.4,29,18.4z"/>
		<rect x="27.7" y="14.3" fill="#FFFFFF" width="2.6" height="7.9"/>
		<path fill="#FFFFFF" d="M14.4,20.3c-3.4,0.3-4.5,2.5-4.5,5.5c0,2.8-0.1,5.6,0,8.4c0.3,6,9.3,4.3,13.3,4.3c4.2,0,11.6,1.4,11.8-4.7
			c0.1-2.9,0.1-5.8,0-8.6c-0.1-2.8-1.6-4.8-4.6-4.9C25.2,20.1,19.8,20.3,14.4,20.3c-1.6,0-1.6,2.5,0,2.5c3.7,0,7.5,0,11.2,0
			c1.6,0,3.4-0.2,5,0c2.8,0.4,2,4.1,2,6.1c0,1.7,0.4,3.8,0,5.4c-0.5,2.3-3.5,1.7-5.2,1.7c-4.2,0-8.7,0.4-12.8,0
			c-2.9-0.3-2.1-3.8-2.1-5.9c0-2-1-7.1,2-7.4C16,22.7,16,20.2,14.4,20.3z"/>
		<path fill="#FFFFFF" stroke="#FFFFFF" stroke-width="1.2" stroke-miterlimit="10" d="M23,28.1"/>
		<g>
			<path fill="#FFFFFF" d="M23.2,29.3v3.3c0,0.4-0.3,0.6-0.7,0.6c-0.4,0-0.7-0.3-0.7-0.6v-3.3c-0.8-0.3-1.4-1-1.4-1.8
				c0-1,1-1.9,2.1-1.9c1.1,0,2.1,0.9,2.1,1.9C24.6,28.4,24.1,29.1,23.2,29.3L23.2,29.3z"/>
			<path fill="#FFFFFF" d="M22.5,33.8c-0.7,0-1.2-0.5-1.2-1.1v-3c-0.8-0.4-1.4-1.2-1.4-2.1c0-1.3,1.2-2.4,2.6-2.4
				c1.4,0,2.6,1.1,2.6,2.4c0,1-0.5,1.8-1.4,2.2v3C23.7,33.3,23.2,33.8,22.5,33.8z M22.5,26.1c-0.8,0-1.6,0.7-1.6,1.4
				c0,0.6,0.4,1.1,1.1,1.3l0.4,0.1v3.7c0,0.1,0,0.2,0.2,0.2c0.2,0,0.2-0.1,0.2-0.2V29l0.4-0.1c0.4-0.1,1.1-0.5,1.1-1.3
				C24.1,26.8,23.4,26.1,22.5,26.1z"/>
		</g>
	</g>
</g>
</svg>
