<?xml version="1.0" encoding="utf-8"?>
<!-- Generator: Adobe Illustrator 18.1.1, SVG Export Plug-In . SVG Version: 6.00 Build 0)  -->
<!DOCTYPE svg PUBLIC "-//W3C//DTD SVG 1.1//EN" "http://www.w3.org/Graphics/SVG/1.1/DTD/svg11.dtd">
<svg version="1.1" xmlns="http://www.w3.org/2000/svg" xmlns:xlink="http://www.w3.org/1999/xlink" x="0px" y="0px"
	 viewBox="0 0 45 45" enable-background="new 0 0 45 45" xml:space="preserve">
<g id="Layer_2">
</g>
<g id="Layer_1">
	<g>
		<path fill="#FFFFFF" d="M8,14.1c9.7,0,19.3,0,29,0c1.8,0,1.8-2.8,0-2.8c-9.7,0-19.3,0-29,0C6.3,11.4,6.2,14.1,8,14.1L8,14.1z"/>
		<path fill="#FFFFFF" d="M8,23.9c9.7,0,19.3,0,29,0c1.8,0,1.8-2.8,0-2.8c-9.7,0-19.3,0-29,0C6.3,21.1,6.2,23.9,8,23.9L8,23.9z"/>
		<path fill="#FFFFFF" d="M8,33.6c9.7,0,19.3,0,29,0c1.8,0,1.8-2.8,0-2.8c-9.7,0-19.3,0-29,0C6.3,30.9,6.2,33.6,8,33.6L8,33.6z"/>
	</g>
</g>
</svg>
