<?xml version="1.0" encoding="utf-8"?>
<!-- Generator: Adobe Illustrator 18.1.1, SVG Export Plug-In . SVG Version: 6.00 Build 0)  -->
<!DOCTYPE svg PUBLIC "-//W3C//DTD SVG 1.1//EN" "http://www.w3.org/Graphics/SVG/1.1/DTD/svg11.dtd">
<svg version="1.1" xmlns="http://www.w3.org/2000/svg" xmlns:xlink="http://www.w3.org/1999/xlink" x="0px" y="0px"
	 viewBox="0 0 45 45" enable-background="new 0 0 45 45" xml:space="preserve">
<g id="Layer_2">
</g>
<g id="Layer_1">
	<g>
		<g>
			<path fill="#FFFFFF" d="M21,15c0,5,0,10,0,15c0,2,3.1,2,3.1,0c0-5,0-10,0-15C24.1,13,21,13,21,15L21,15z"/>
			<path fill="#FFFFFF" d="M15.1,24.1c5,0,10,0,15,0c2,0,2-3.1,0-3.1c-5,0-10,0-15,0C13,20.9,13,24.1,15.1,24.1L15.1,24.1z"/>
		</g>
		<path fill="#FFFFFF" d="M38.3,42.5H6.8c-2.4,0-4.3-1.9-4.3-4.3V6.7c0-2.4,1.9-4.3,4.3-4.3h31.5c2.4,0,4.3,1.9,4.3,4.3v31.5
			C42.6,40.6,40.7,42.5,38.3,42.5z M6.8,6C6.4,6,6,6.3,6,6.7v31.5C6,38.7,6.4,39,6.8,39h31.5c0.4,0,0.8-0.3,0.8-0.8V6.7
			c0-0.4-0.4-0.8-0.8-0.8H6.8z"/>
		<path fill="#FFFFFF" d="M19.1,14.1l2.9-4c0.3-0.4,0.8-0.4,1.1,0l2.9,4c0.3,0.4,0,1.1-0.6,1.1h-5.7C19.1,15.2,18.8,14.6,19.1,14.1z
			"/>
		<path fill="#FFFFFF" d="M14,26l-4-2.9c-0.4-0.3-0.4-0.8,0-1.1l4-2.9c0.4-0.3,1.1,0,1.1,0.6v5.7C15.1,26,14.5,26.3,14,26z"/>
		<path fill="#FFFFFF" d="M31.1,19.1l4,2.9c0.4,0.3,0.4,0.8,0,1.1l-4,2.9c-0.4,0.3-1.1,0-1.1-0.6v-5.7C30,19.1,30.7,18.8,31.1,19.1z
			"/>
		<path fill="#FFFFFF" d="M25.9,31.1l-2.9,4c-0.3,0.4-0.8,0.4-1.1,0l-2.9-4c-0.3-0.4,0-1.1,0.6-1.1h5.7C25.9,30,26.2,30.6,25.9,31.1
			z"/>
	</g>
</g>
</svg>
