<?xml version="1.0" encoding="utf-8"?>
<!-- Generator: Adobe Illustrator 18.1.1, SVG Export Plug-In . SVG Version: 6.00 Build 0)  -->
<!DOCTYPE svg PUBLIC "-//W3C//DTD SVG 1.1//EN" "http://www.w3.org/Graphics/SVG/1.1/DTD/svg11.dtd">
<svg version="1.1" xmlns="http://www.w3.org/2000/svg" xmlns:xlink="http://www.w3.org/1999/xlink" x="0px" y="0px"
	 viewBox="0 0 45 45" enable-background="new 0 0 45 45" xml:space="preserve">
<g id="Layer_2">
</g>
<g id="Layer_1">
	<g>
		<path fill="#FFFFFF" d="M38.9,34.4H14.5c-2,0-3.7-1.7-3.7-3.7V6.4c0-2,1.7-3.7,3.7-3.7h24.3c2,0,3.7,1.7,3.7,3.7v24.3
			C42.5,32.7,40.9,34.4,38.9,34.4z M14.5,6.2c-0.1,0-0.2,0.1-0.2,0.2v24.3c0,0.1,0.1,0.2,0.2,0.2h24.3c0.1,0,0.2-0.1,0.2-0.2V6.4
			c0-0.1-0.1-0.2-0.2-0.2H14.5z"/>
		<path fill="#FFFFFF" d="M19.1,42.3H5.4c-1.6,0-2.8-1.3-2.8-2.8V25.8c0-1.6,1.3-2.8,2.8-2.8h13.7c1.6,0,2.8,1.3,2.8,2.8v13.7
			C21.9,41,20.6,42.3,19.1,42.3z M6,38.8h12.4V26.5H6V38.8z"/>
	</g>
</g>
</svg>
