<?xml version="1.0" encoding="utf-8"?>
<!-- Generator: Adobe Illustrator 18.1.1, SVG Export Plug-In . SVG Version: 6.00 Build 0)  -->
<!DOCTYPE svg PUBLIC "-//W3C//DTD SVG 1.1//EN" "http://www.w3.org/Graphics/SVG/1.1/DTD/svg11.dtd">
<svg version="1.1" xmlns="http://www.w3.org/2000/svg" xmlns:xlink="http://www.w3.org/1999/xlink" x="0px" y="0px"
	 viewBox="0 0 45 45" enable-background="new 0 0 45 45" xml:space="preserve">
<g id="Layer_2">
</g>
<g id="Layer_1">
	<g>
		<path fill="#FFFFFF" d="M38.2,42.5H6.8c-2.3,0-4.3-1.9-4.3-4.3V6.8c0-2.3,1.9-4.3,4.3-4.3h31.4c2.3,0,4.3,1.9,4.3,4.3v31.4
			C42.5,40.5,40.6,42.5,38.2,42.5z M6.8,6C6.4,6,6,6.4,6,6.8v31.4C6,38.6,6.4,39,6.8,39h31.4c0.4,0,0.8-0.3,0.8-0.8V6.8
			C39,6.4,38.6,6,38.2,6H6.8z"/>
		<path fill="#FFFFFF" d="M19.1,42.5H5.4c-1.6,0-2.8-1.3-2.8-2.8V26c0-1.6,1.3-2.8,2.8-2.8h13.7c1.6,0,2.8,1.3,2.8,2.8v13.7
			C21.9,41.2,20.6,42.5,19.1,42.5z M6,39h12.4V26.6H6V39z"/>
	</g>
</g>
</svg>
