<?xml version="1.0" encoding="utf-8"?>
<!-- Generator: Adobe Illustrator 18.1.1, SVG Export Plug-In . SVG Version: 6.00 Build 0)  -->
<!DOCTYPE svg PUBLIC "-//W3C//DTD SVG 1.1//EN" "http://www.w3.org/Graphics/SVG/1.1/DTD/svg11.dtd">
<svg version="1.1" xmlns="http://www.w3.org/2000/svg" xmlns:xlink="http://www.w3.org/1999/xlink" x="0px" y="0px"
	 viewBox="0 0 45 45" enable-background="new 0 0 45 45" xml:space="preserve">
<g id="Layer_2">
</g>
<g id="Layer_1">
	<g>
		<path fill="#FFFFFF" d="M36.6,20.8c-0.2-1.6-0.6-3.2-1.3-4.7c-0.7-1.5-1.7-2.9-2.9-4.1c-1.2-1.2-2.5-2.1-3.9-2.8
			C27,8.5,25.5,8,24,7.8c-1.5-0.2-3.1-0.2-4.6,0.1C18.9,8,18.5,8.1,18,8.2l-2,0.5L19.7,5c0.3-0.3,0.4-0.6,0.4-1s-0.1-0.7-0.4-1
			c-0.5-0.5-1.5-0.5-2,0l-5.3,5.3c-0.3,0.3-0.4,0.6-0.4,1s0.1,0.7,0.4,1l5.3,5.3c0.5,0.5,1.5,0.5,2,0c0.3-0.3,0.4-0.6,0.4-1
			c0-0.4-0.1-0.7-0.4-1l-2.2-2.2l0.9-0.3c1.2-0.4,2.4-0.5,3.6-0.5c0.6,0,1.1,0,1.7,0.1c2.6,0.4,4.9,1.5,6.8,3.4c1,1,1.8,2.1,2.4,3.3
			c0.6,1.2,0.9,2.5,1.1,3.8c0.3,2.6-0.3,5.3-1.7,7.6c-0.3,0.6-0.3,1.3,0.2,1.8c0.1,0.1,0.2,0.2,0.3,0.2c0.2,0.1,0.5,0.2,0.7,0.2
			c0.5,0,1-0.3,1.2-0.7c0.9-1.4,1.5-2.9,1.8-4.6C36.7,24.1,36.8,22.5,36.6,20.8z"/>
		<path fill="#FFFFFF" d="M31.4,36.7c0.6-0.6,0.6-1.5,0-2l-5.3-5.3c-0.5-0.5-1.5-0.5-2,0c-0.6,0.6-0.6,1.5,0,2l2.2,2.2l-0.9,0.3
			c-1.9,0.6-4,0.7-5.9,0.3c-2.3-0.5-4.4-1.6-6.1-3.3c-1-1-1.8-2.1-2.4-3.3c-0.6-1.2-0.9-2.5-1.1-3.8c-0.3-2.6,0.3-5.3,1.7-7.6
			c0.4-0.7,0.2-1.6-0.5-2c-0.2-0.1-0.5-0.2-0.7-0.2c-0.5,0-1,0.3-1.2,0.7c-0.9,1.4-1.5,2.9-1.8,4.6c-0.3,1.6-0.4,3.2-0.2,4.8
			c0.2,1.6,0.6,3.2,1.3,4.7c0.7,1.5,1.7,2.9,2.9,4.1l0,0c2.1,2.1,4.7,3.5,7.5,4c2.3,0.5,4.6,0.4,6.8-0.2l2-0.5L24,40
			c-0.3,0.3-0.4,0.6-0.4,1s0.1,0.7,0.4,1c0.5,0.5,1.5,0.5,2,0L31.4,36.7z"/>
	</g>
</g>
</svg>
