<?xml version="1.0" encoding="utf-8"?>
<!-- Generator: Adobe Illustrator 18.1.1, SVG Export Plug-In . SVG Version: 6.00 Build 0)  -->
<!DOCTYPE svg PUBLIC "-//W3C//DTD SVG 1.1//EN" "http://www.w3.org/Graphics/SVG/1.1/DTD/svg11.dtd">
<svg version="1.1" xmlns="http://www.w3.org/2000/svg" xmlns:xlink="http://www.w3.org/1999/xlink" x="0px" y="0px"
	 viewBox="0 0 45 45" enable-background="new 0 0 45 45" xml:space="preserve">
<g id="Layer_2">
</g>
<g id="Layer_1">
	<g>
		<path fill="#FFFFFF" d="M38.2,42.5H6.8c-2.3,0-4.3-1.9-4.3-4.3V6.8c0-2.3,1.9-4.3,4.3-4.3h31.4c2.3,0,4.3,1.9,4.3,4.3v31.4
			C42.5,40.5,40.6,42.5,38.2,42.5z M6.8,6C6.4,6,6,6.4,6,6.8v31.4C6,38.6,6.4,39,6.8,39h31.4c0.4,0,0.8-0.3,0.8-0.8V6.8
			C39,6.4,38.6,6,38.2,6H6.8z"/>
		<g>
			<path fill="#FFFFFF" d="M19.1,24c-1.7,1.7-3.3,3.3-5,5c-1.3,1.3,0.7,3.2,2,2c1.7-1.7,3.3-3.3,5-5C22.3,24.7,20.4,22.7,19.1,24
				L19.1,24z"/>
			<path fill="#FFFFFF" d="M29.2,13.9c-1.7,1.7-3.4,3.4-5.1,5.1c-1.3,1.3,0.7,3.2,2,2c1.7-1.7,3.4-3.4,5.1-5.1
				C32.4,14.6,30.4,12.6,29.2,13.9L29.2,13.9z"/>
			<path fill="#FFFFFF" d="M27.6,10.6l6.9-1.1c0.7-0.1,1.2,0.5,1.1,1.1l-1.1,6.9c-0.1,0.8-1.1,1.1-1.6,0.5l-5.8-5.8
				C26.6,11.6,26.9,10.7,27.6,10.6z"/>
			<path fill="#FFFFFF" d="M17.4,34.4l-6.9,1.1c-0.7,0.1-1.2-0.5-1.1-1.1l1.1-6.9c0.1-0.8,1.1-1.1,1.6-0.5l5.8,5.8
				C18.5,33.4,18.2,34.3,17.4,34.4z"/>
		</g>
	</g>
</g>
</svg>
