<?xml version="1.0" encoding="utf-8"?>
<!-- Generator: Adobe Illustrator 18.1.1, SVG Export Plug-In . SVG Version: 6.00 Build 0)  -->
<!DOCTYPE svg PUBLIC "-//W3C//DTD SVG 1.1//EN" "http://www.w3.org/Graphics/SVG/1.1/DTD/svg11.dtd">
<svg version="1.1" xmlns="http://www.w3.org/2000/svg" xmlns:xlink="http://www.w3.org/1999/xlink" x="0px" y="0px"
	 viewBox="0 0 45 45" enable-background="new 0 0 45 45" xml:space="preserve">
<g id="Layer_2">
</g>
<g id="Layer_1">
	<path fill="#FFFFFF" d="M36,42.5C36,42.5,36,42.5,36,42.5c-1.5,0-2.9-0.5-4.1-1.5C31,40.2,15,24.1,13.1,22.2c-0.3,0-0.5,0-0.8,0
		c-2.7,0-5-1-7-2.9c-1.5-1.5-2.5-3.3-2.8-5.5C2.4,13,2.3,12,2.6,11c0.2-1,1.1-1.7,2.1-1.7c0.3,0,0.7,0.1,1,0.2
		c0.5,0.2,0.9,0.6,1.2,0.9l1,1c0.7,0.7,1.4,1.4,2.1,2.1c0.2,0.2,0.3,0.2,0.3,0.2c0.1,0,0.2,0,0.3,0c0.4,0,0.6-0.1,0.8-0.3
		c0.1-0.1,0.2-0.2,0.3-0.3c0.1-0.1,0.1-0.1,0.2-0.2c0.3-0.3,0.5-0.5,0.8-0.8c0.4-0.3,0.7-0.7,0.9-1c0-0.1,0.1-0.1,0.1-0.1
		c0.1-0.3,0.1-0.5-0.2-0.8c-0.1-0.1-0.5-0.5-1-1c-0.9-0.9-2-2-2.5-2.5C9.1,5.9,8.8,5,9,4.1l0-0.1c0.4-1,1.2-1.5,2.3-1.6
		c1-0.1,1.9,0,2.9,0.2c2.7,0.6,4.8,2,6.3,4.2c0.8,1.2,1.3,2.5,1.6,4.1c0.1,0.7,0.2,1.6,0.1,2.5c2.4,2.5,17.1,17.3,18,18.2
		c2.1,2.1,2.6,5.3,1.1,7.8C40.3,41.3,38.2,42.5,36,42.5z M13.3,20c0.5,0,1,0.2,1.3,0.6c2.2,2.3,17.9,18,18.7,18.7
		c0.7,0.6,1.6,1,2.6,1c1.5,0,2.8-0.7,3.5-2c1-1.6,0.7-3.7-0.7-5c-0.3-0.3-4.9-4.9-9.4-9.4c-9.2-9.3-9.2-9.3-9.3-9.7L20,13.8l0.1-0.6
		c0.2-0.7,0.1-1.4,0-2C19.8,10,19.4,9,18.8,8.1c-1.2-1.8-2.8-2.9-4.9-3.3c-0.8-0.2-1.5-0.2-2.2-0.1c-0.3,0-0.4,0.1-0.4,0.1
		c0,0.1,0,0.1,0.2,0.3c0.5,0.5,1.6,1.7,2.5,2.5c0.7,0.7,1,1,1.1,1.1c0.8,0.9,1,1.9,0.7,3c-0.1,0.3-0.2,0.5-0.3,0.6l-0.1,0.1
		c-0.4,0.5-0.8,1-1.3,1.4c-0.2,0.2-0.4,0.4-0.7,0.7c-0.1,0.1-0.2,0.2-0.3,0.3c-0.1,0.1-0.1,0.1-0.2,0.2c-0.8,0.8-1.8,1.2-3,1
		c-0.8-0.1-1.4-0.6-1.6-0.9c-0.7-0.7-1.4-1.4-2.1-2.1l-1-1c-0.1-0.1-0.3-0.3-0.5-0.4c-0.1,0.6-0.1,1.2,0.1,2c0.3,1.6,1,3,2.2,4.2
		c1.7,1.7,3.8,2.4,6.1,2.2C13.2,20,13.2,20,13.3,20z M35.6,38.1c-1.2,0-2.1-0.9-2.1-2.1s0.9-2.1,2.1-2.1s2.1,0.9,2.1,2.1
		S36.8,38.1,35.6,38.1z"/>
	<circle fill="#EF4136" cx="37.3" cy="7.5" r="5.1"/>
</g>
</svg>
