<?xml version="1.0" encoding="utf-8"?>
<!-- Generator: Adobe Illustrator 18.1.1, SVG Export Plug-In . SVG Version: 6.00 Build 0)  -->
<!DOCTYPE svg PUBLIC "-//W3C//DTD SVG 1.1//EN" "http://www.w3.org/Graphics/SVG/1.1/DTD/svg11.dtd">
<svg version="1.1" xmlns="http://www.w3.org/2000/svg" xmlns:xlink="http://www.w3.org/1999/xlink" x="0px" y="0px"
	 viewBox="0 0 45 45" enable-background="new 0 0 45 45" xml:space="preserve">
<g id="Layer_2">
</g>
<g id="Layer_1">
	<path fill="#FFFFFF" d="M35.5,42.1C35.5,42.1,35.5,42.1,35.5,42.1c-1.5,0-2.9-0.5-4-1.5C30.6,39.9,15,24.1,13.2,22.3
		c-0.3,0-0.5,0-0.8,0c-2.6,0-4.9-0.9-6.8-2.8c-1.5-1.5-2.4-3.3-2.8-5.4c-0.1-0.9-0.2-1.8,0-2.8c0.2-1,1.1-1.7,2.1-1.7
		c0.3,0,0.7,0.1,1,0.2c0.5,0.2,0.8,0.5,1.1,0.8l1,1c0.7,0.7,1.3,1.3,2,2c0.2,0.2,0.2,0.2,0.3,0.2c0.1,0,0.2,0,0.2,0
		c0.3,0,0.6-0.1,0.8-0.3c0.1-0.1,0.2-0.2,0.3-0.3c0.1-0.1,0.1-0.1,0.2-0.2c0.2-0.3,0.5-0.5,0.8-0.8c0.3-0.3,0.7-0.6,0.9-1
		c0-0.1,0.1-0.1,0.1-0.1c0.1-0.3,0.1-0.5-0.2-0.8c-0.1-0.1-0.5-0.5-1-1C11.4,8.7,10.4,7.6,9.8,7C9.2,6.3,8.9,5.5,9.2,4.6l0-0.1
		c0.4-0.9,1.1-1.5,2.3-1.6c0.9-0.1,1.9,0,2.9,0.2C17,3.6,19.1,5,20.6,7.2c0.8,1.2,1.3,2.5,1.5,4c0.1,0.7,0.2,1.6,0.1,2.4
		c2.4,2.5,16.7,16.9,17.6,17.8c2.1,2,2.5,5.1,1.1,7.6C39.7,41,37.7,42.1,35.5,42.1z M13.3,20.1c0.5,0,0.9,0.2,1.3,0.6
		C16.8,22.9,32.2,38.3,33,39c0.7,0.6,1.6,0.9,2.5,0.9c1.4,0,2.7-0.7,3.4-2c0.9-1.6,0.7-3.6-0.7-4.9c-0.3-0.2-4.8-4.8-9.2-9.2
		c-9-9.1-9-9.1-9.1-9.5l-0.1-0.2l0.1-0.5c0.2-0.7,0.1-1.3,0-2c-0.2-1.2-0.6-2.2-1.2-3.1c-1.2-1.7-2.8-2.8-4.8-3.2
		c-0.7-0.2-1.5-0.2-2.2-0.1c-0.3,0-0.4,0.1-0.4,0.1c0,0.1,0,0.1,0.2,0.3C11.9,6,13,7.1,13.9,7.9c0.7,0.7,1,1,1.1,1.1
		c0.8,0.9,1,1.9,0.7,2.9c-0.1,0.3-0.2,0.5-0.3,0.6l-0.1,0.1c-0.4,0.5-0.8,0.9-1.2,1.3c-0.2,0.2-0.4,0.4-0.6,0.6
		c-0.1,0.1-0.2,0.2-0.3,0.3c-0.1,0.1-0.1,0.1-0.2,0.2c-0.8,0.8-1.8,1.1-2.9,1c-0.8-0.1-1.3-0.6-1.6-0.9c-0.7-0.7-1.3-1.3-2-2l-1-1
		C5.3,12.2,5.1,12,5,11.9c-0.1,0.6-0.1,1.2,0,1.9c0.2,1.6,1,3,2.1,4.1c1.7,1.6,3.7,2.3,6,2.1C13.2,20.1,13.3,20.1,13.3,20.1z
		 M35.2,37.9c-1.1,0-2-0.9-2-2s0.9-2,2-2c1.1,0,2,0.9,2,2S36.3,37.9,35.2,37.9z"/>
</g>
</svg>
