<?xml version="1.0" encoding="utf-8"?>
<!-- Generator: Adobe Illustrator 18.0.0, SVG Export Plug-In . SVG Version: 6.00 Build 0)  -->
<!DOCTYPE svg PUBLIC "-//W3C//DTD SVG 1.1//EN" "http://www.w3.org/Graphics/SVG/1.1/DTD/svg11.dtd">
<svg version="1.1" id="Layer_1" xmlns="http://www.w3.org/2000/svg" xmlns:xlink="http://www.w3.org/1999/xlink" x="0px" y="0px"
	 viewBox="0 0 595.3 841.9" enable-background="new 0 0 595.3 841.9" xml:space="preserve">
<g id="Layer_2">
</g>
<path fill="#FFFFFF" d="M478.9,686.8L478.9,686.8c-19.8,0-38.4-6.6-54.2-19.8c-11.9-10.6-224.9-224.9-248.7-248.7c-4,0-6.6,0-10.6,0
	c-35.7,0-66.1-13.2-92.6-38.4c-21.2-18.5-33.1-43.7-38.4-71.4c-1.3-11.9-2.6-25.1,0-38.4c2.6-13.2,14.6-22.5,27.8-22.5
	c4,0,9.3,1.3,13.2,2.6c6.6,2.6,11.9,7.9,15.9,11.9l13.2,13.2c9.3,9.3,18.5,18.5,27.8,27.8c2.6,2.6,4,2.6,4,2.6c1.3,0,2.6,0,4,0
	c5.3,0,7.9-1.3,10.6-4c1.3-1.3,2.6-2.6,4-4c1.3-1.3,1.3-1.3,2.6-2.6c4-4,6.6-6.6,10.6-10.6c5.3-4,9.3-9.3,11.9-13.2
	c0-1.3,1.3-1.3,1.3-1.3c1.3-4,1.3-6.6-2.6-10.6c-1.3-1.3-6.6-6.6-13.2-13.2c-11.9-11.9-26.5-26.5-33.1-33.1
	c-10.6-11.9-14.6-23.8-11.9-34.4v-1.3c5.3-13.2,15.9-19.8,31.7-21.2c13.2-1.3,26.5,0,38.4,2.6c35.7,7.9,63.5,26.5,84.7,56.9
	c10.6,15.9,17.2,34.4,21.2,54.2c1.3,9.3,2.6,21.2,1.3,33.1c31.7,33.1,226.2,228.9,239.4,240.8c27.8,27.8,34.4,70.1,14.6,103.2
	C535.8,671,508,686.8,478.9,686.8z M177.3,387.9c6.6,0,13.2,2.6,17.2,7.9c30.4,30.4,238.1,239.4,248.7,248.7
	c9.3,7.9,21.2,13.2,34.4,13.2c19.8,0,37-10.6,46.3-26.5c13.2-21.2,9.3-48.9-9.3-66.1c-4-4-66.1-66.1-124.3-124.3
	c-123-123-123-124.3-124.3-129.6l-1.3-2.6l1.3-7.9c2.6-9.3,1.3-18.5,0-26.5c-1.3-17.2-6.6-31.7-14.6-43.7
	c-15.9-23.8-37-38.4-64.8-43.7c-10.6-2.6-19.8-2.6-29.1-1.3c-4,0-5.3,1.3-5.3,1.3c0,1.3,0,1.3,2.6,4c4,6.6,18.5,21.2,30.4,33.1
	c9.3,9.3,13.2,13.2,14.6,14.6c10.6,11.9,13.2,25.1,9.3,39.7c-1.3,4-2.6,6.6-4,7.9l-1.3,1.3c-5.3,6.6-10.6,13.2-17.2,18.5
	c-2.6,2.6-6.6,5.3-9.3,9.3c-1.3,1.3-2.6,2.6-4,4c-1.3,1.3-1.3,1.3-2.6,2.6c-10.6,10.6-23.8,15.9-39.7,13.2
	c-10.6-1.3-18.5-7.9-21.2-11.9c-9.3-9.3-18.5-18.5-27.8-27.8L68.8,282c-1.3-1.3-4-4-6.6-5.3c-1.3,7.9-1.3,15.9,1.3,26.5
	c4,21.2,13.2,41,29.1,55.6c22.5,22.5,50.3,31.7,82,29.1C175.9,387.9,177.3,387.9,177.3,387.9z M473.6,628.6
	c-15.9,0-27.8-11.9-27.8-27.8c0-15.9,11.9-27.8,27.8-27.8c15.9,0,27.8,11.9,27.8,27.8C501.4,616.7,489.5,628.6,473.6,628.6z"/>
<circle fill="#EF4136" cx="169.3" cy="550.6" r="68.8"/>
</svg>
