<?xml version="1.0" encoding="utf-8"?>
<!-- Generator: Adobe Illustrator 18.1.1, SVG Export Plug-In . SVG Version: 6.00 Build 0)  -->
<!DOCTYPE svg PUBLIC "-//W3C//DTD SVG 1.1//EN" "http://www.w3.org/Graphics/SVG/1.1/DTD/svg11.dtd">
<svg version="1.1" xmlns="http://www.w3.org/2000/svg" xmlns:xlink="http://www.w3.org/1999/xlink" x="0px" y="0px"
	 viewBox="0 0 45 45" enable-background="new 0 0 45 45" xml:space="preserve">
<g id="Layer_2">
</g>
<g id="Layer_1">
	<g>
		<g>
			<g>
				<path fill="#FFFFFF" d="M36.6,30.6c3.6-6.7,0.8-15.7-6.7-20.4c-3.8-2.4-8.2-3.1-12.5-2.1c-4.3,1-7.9,3.6-10.3,7.3S4,23.6,5,27.9
					c1,4.3,3.6,7.9,7.3,10.3c0.8,0.5,2.1,0.2,2.6-0.6c0.3-0.5,0.4-0.8,0.2-1.3l0-0.1l0-0.1c0-0.7,0-1.7,0.5-2.6
					c1.2-1.8,3.7-2.4,5.5-1.3l3,1.9c2.5,1.6,5.4,1.7,7.9,0.7l1.8,1.5c-3.3,1.7-7.3,1.7-10.8-0.5l-3-1.9c-0.8-0.5-2.1-0.2-2.6,0.6
					c-0.2,0.4-0.2,0.8-0.2,1.4c0.2,1,0,1.8-0.5,2.8c-1.1,1.8-3.7,2.4-5.5,1.3C7,37.3,4.1,33.2,2.9,28.4s-0.2-9.8,2.4-14.1
					S12.1,7.2,17,6.1S26.8,5.8,31,8.5c8.6,5.4,11.7,16,7,23.8L36.6,30.6z"/>
			</g>
		</g>
		<g>
			<path fill="#FFFFFF" d="M41.8,40.9C41.9,41,42,41,42.1,41l0,0c0.2,0,0.4-0.1,0.5-0.3c0.1-0.3,0-0.5-0.1-0.6L38.8,36
				c-1.2-1.4-2.5-2.8-3.7-4.2l-3.1-3.5c-0.1-0.1-1.4-1.6-1.4-1.6l-0.3-0.4c-0.2-0.2-0.4-0.4-0.6-0.6c-0.3-0.3-0.6-0.6-0.8-1
				c-0.5-0.6-1-1.2-1.6-1.7c-0.3-0.3-0.8-0.5-1.3-0.5c-0.8,0-1.5,0.4-1.8,1.1c-0.2,0.5-0.3,1-0.1,1.6c0.1,0.2,0.6,0.8,1.2,1.3
				l0.5,0.4c0.7,0.6,1.3,1.2,2,1.7c0.5,0.5,1.1,0.9,1.6,1.4l0.1,0.1l9.4,8.3C39.9,39.3,40.9,40.1,41.8,40.9z"/>
			<path fill="#FFFFFF" d="M22.2,17.2L22.1,17c-0.4-0.5-0.3-0.4-0.8-0.8l0,0c-0.7-0.5-1.3-0.8-1.9-1c-1.3-0.4-2.4-0.6-3.4-0.6
				c0.6,0.5,1.4,1.3,1.8,2.4c0.2,0.5,0.3,1.1,0.4,1.9c0,0.2,0.1,0.4,0.1,0.6l0.1,0.3c0.1,0.9,0.9,1.5,1.9,1.6c0.1,0,0.2,0,0.3,0
				c1.1,0,2.2-0.8,2.4-1.8c0.2-0.7,0-1.5-0.5-2.3C22.3,17.3,22.3,17.2,22.2,17.2z"/>
		</g>
	</g>
</g>
</svg>
