<?xml version="1.0" encoding="utf-8"?>
<!-- Generator: Adobe Illustrator 18.1.1, SVG Export Plug-In . SVG Version: 6.00 Build 0)  -->
<!DOCTYPE svg PUBLIC "-//W3C//DTD SVG 1.1//EN" "http://www.w3.org/Graphics/SVG/1.1/DTD/svg11.dtd">
<svg version="1.1" xmlns="http://www.w3.org/2000/svg" xmlns:xlink="http://www.w3.org/1999/xlink" x="0px" y="0px"
	 viewBox="0 0 45 45" enable-background="new 0 0 45 45" xml:space="preserve">
<g id="Layer_2">
</g>
<g id="Layer_1">
	<g>
		<path fill="#FFFFFF" d="M8.9,6C4.6,6,1,9.3,1,13.2v3.6c0,0.9,0.6,1.6,1.4,1.6c0.7,0,1.4-0.8,1.4-1.6v-3.6c0-2.6,2.3-4.7,5.1-4.7
			c2.8,0,5.1,2.1,5.1,4.7v7.4h2.8v-7.4C16.8,9.3,13.2,6,8.9,6z"/>
		<path fill="#FFFFFF" d="M14.3,20.4c-3.4,0.3-4.5,2.5-4.5,5.6c0,2.8-0.1,5.6,0,8.4c0.3,6.1,9.3,4.4,13.4,4.4
			c4.2,0,11.7,1.4,11.9-4.7c0.1-2.9,0.1-5.8,0-8.7c-0.1-2.8-1.6-4.8-4.6-5C25.1,20.1,19.7,20.4,14.3,20.4c-1.6,0-1.6,2.5,0,2.5
			c3.7,0,7.5,0,11.2,0c1.6,0,3.4-0.2,5,0c2.8,0.4,2,4.1,2,6.2c0,1.7,0.4,3.8,0,5.4c-0.5,2.3-3.5,1.7-5.2,1.7c-4.2,0-8.7,0.4-12.9,0
			c-2.9-0.3-2.1-3.8-2.1-5.9c0-2-1-7.1,2-7.4C15.9,22.8,15.9,20.2,14.3,20.4z"/>
		<g>
			<path fill="#FFFFFF" d="M23.1,29.5v3.4c0,0.4-0.3,0.7-0.7,0.7c-0.4,0-0.7-0.3-0.7-0.7v-3.4c-0.9-0.3-1.4-1-1.4-1.8
				c0-1,1-1.9,2.1-1.9c1.1,0,2.1,0.9,2.1,1.9C24.6,28.5,24,29.2,23.1,29.5L23.1,29.5z"/>
			<path fill="#FFFFFF" d="M22.4,34c-0.7,0-1.2-0.5-1.2-1.2v-3c-0.9-0.4-1.4-1.2-1.4-2.2c0-1.3,1.2-2.4,2.6-2.4
				c1.4,0,2.6,1.1,2.6,2.4c0,1-0.5,1.8-1.4,2.2v3C23.6,33.5,23.1,34,22.4,34z M22.4,26.2c-0.9,0-1.6,0.7-1.6,1.4
				c0,0.6,0.4,1.1,1.1,1.3l0.4,0.1v3.7c0,0.1,0,0.2,0.2,0.2c0.2,0,0.2-0.1,0.2-0.2v-3.7L23,29c0.4-0.1,1.1-0.5,1.1-1.3
				C24.1,26.9,23.3,26.2,22.4,26.2z"/>
		</g>
	</g>
</g>
</svg>
