<?xml version="1.0"?>
<svg width="23" height="23" xmlns="http://www.w3.org/2000/svg" xmlns:svg="http://www.w3.org/2000/svg">
 <g>
  <path id="lively_star" d="m10.8,17.9c-0.1,0 -0.2,0 -0.3,0c-0.4,0 -0.8,-0.199999 -1.1,-0.4c-0.599999,-0.299999 -1,-1 -1,-1.7c0,-0.400001 0.1,-0.8 0.3,-1.1c0.1,-0.2 0.2,-0.4 0.2,-0.599999c0,-0.1 0,-0.3 -0.099999,-0.400001c-0.1,-0.099999 -0.400001,-0.099999 -0.7,-0.099999c-0.1,0 -0.3,0 -0.5,0c-0.3,0 -0.6,0 -1,-0.200001c-0.8,-0.299999 -1.3,-1.099999 -1.3,-2c0,-0.9 0.6,-1.7 1.3,-2c0.5,-0.2 1,-0.2 1.4,-0.099999c0.3,0 0.6,0 0.7,-0.1c0.2,-0.2 0,-0.599999 -0.099999,-1c-0.1,-0.3 -0.3,-0.7 -0.3,-1c0,-1.2 1.2,-2.1 2.3,-2.1c0.299999,0 0.599999,0 0.799999,0.1c0.5,0.2 0.8,0.7 1,1c0.1,0.2 0.200001,0.5 0.3,0.8c0,0.2 0.1,0.3 0.1,0.5c0,0.1 0.099999,0.2 0.2,0.2c0.1,0 0.2,0 0.3,0l0.099999,-0.1c0,0 0,0 -0.099999,0l0,0l0.099999,-0.1l0,0l0.200001,-0.1c0.5,-0.4 1.099999,-0.8 1.799999,-0.8l0,0c0.700001,0 1.4,0.4 1.800001,1.1c0.199999,0.3 0.299999,0.7 0.4,1.1c0,0.9 -0.4,1.3 -0.700001,1.599999c-0.199999,0.200001 -0.4,0.3 -0.6,0.400001c-0.199999,0.099999 -0.299999,0.2 -0.4,0.3c-0.099999,0.099999 -0.2,0.2 -0.2,0.299999c0,0.1 0.1,0.200001 0.2,0.3c0.1,0.1 0.300001,0.2 0.5,0.3c0.5,0.3 1,0.7 1.200001,1.4c0.199999,0.700001 0,1.400001 -0.4,2c-0.400002,0.6 -1.1,0.9 -1.700001,0.9l0,0c-0.4,0 -0.7,-0.099998 -1,-0.299999c-0.2,-0.1 -0.3,-0.2 -0.5,-0.4c-0.3,-0.200001 -0.6,-0.5 -0.8,-0.400001c-0.099999,0 -0.2,0.1 -0.2,0.2l0,0.1c-0.1,0.4 -0.3,0.9 -0.5,1.299999c-0.4,0.800001 -1.1,1.1 -1.7,1.1zm-2.400001,-5.2c0.5,0 0.900001,0.2 1.200001,0.6c0.2,0.4 0.2,0.7 0.2,1c0,0.3 -0.1,0.599999 -0.2,0.8c-0.1,0.299999 -0.200001,0.5 -0.200001,0.7c0,0.3 0.200001,0.7 0.5,0.8c0.200001,0.1 0.5,0.199999 0.700001,0.299999c0.099999,0 0.099999,0 0.2,0c0.3,0 0.7,-0.199999 0.8,-0.4c0.2,-0.4 0.299999,-0.8 0.4,-1.2c0.1,-0.5 0.4,-0.8 0.8,-1c0.2,-0.1 0.3,-0.1 0.5,-0.1c0.599999,0 1,0.400001 1.3,0.6c0.099999,0.099999 0.2,0.2 0.4,0.3c0.5,0.299999 1.1,0.099999 1.4,-0.400001c0.300001,-0.3 0.300001,-0.8 0.200001,-1.099999c-0.1,-0.3 -0.4,-0.5 -0.8,-0.8c-0.2,-0.1 -0.400001,-0.3 -0.6,-0.400001c-0.3,-0.299999 -0.5,-0.599999 -0.5,-1l0,-0.099999l0,-0.1c0,-0.3 0.2,-0.7 0.5,-1c0.2,-0.2 0.400001,-0.3 0.6,-0.4c0.2,-0.1 0.3,-0.2 0.400001,-0.3c0.299999,-0.3 0.4,-0.5 0.4,-0.9c0,-0.200001 -0.1,-0.400001 -0.200001,-0.6c-0.199999,-0.4 -0.599999,-0.6 -0.9,-0.6c-0.4,0 -0.9,0.3 -1.3,0.6l-0.3,0.2c-0.5,0.3 -0.9,0.3 -1.299999,0.1c-0.3,-0.1 -0.5,-0.4 -0.6,-0.8c-0.1,-0.2 -0.1,-0.3 -0.2,-0.5c-0.1,-0.2 -0.1,-0.4 -0.2,-0.6c-0.1,-0.2 -0.3,-0.4 -0.5,-0.5c-0.1,0 -0.200001,-0.1 -0.400001,-0.1c-0.7,0 -1.4,0.5 -1.4,1.1c0,0.2 0.099999,0.4 0.2,0.7c0.3,0.8 0.5,1.5 0.1,2.1c-0.200001,0.400001 -0.8,0.6 -1.200001,0.6c-0.099999,0 -0.299999,0 -0.4,0c-0.4,0 -0.8,0 -1,0.099999c-0.4,0.1 -0.7,0.700001 -0.7,1.1c0,0.5 0.3,0.9 0.7,1.1c0.2,0.099999 0.6,0.099999 1,0.099999c0.2,0 0.3,0 0.4,0z"/>
  </g>
</svg>