<?xml version="1.0" encoding="utf-8"?>
<!DOCTYPE svg PUBLIC "-//W3C//DTD SVG 1.1//EN" "http://www.w3.org/Graphics/SVG/1.1/DTD/svg11.dtd">
<svg version="1.1" xmlns="http://www.w3.org/2000/svg" xmlns:xlink="http://www.w3.org/1999/xlink" x="0px" y="0px" viewBox="0 0 117.7 117.7" enable-background="new 0 0 117.7 117.7" xml:space="preserve">
<g id="PartsBin">
	<g>
		<path d="M59.3,33.9c9.8,5.3,19.6,10.6,29.4,15.8c0-1.3,0-2.6,0-3.9c-9.8,5.3-19.6,10.7-29.4,16c0.8,0,1.5,0,2.3,0
			C51.7,56.6,41.9,51.3,32,46c0,1.3,0,2.6,0,3.9c9.9-5.3,19.7-10.6,29.6-15.9c2.6-1.4,0.3-5.3-2.3-3.9C49.4,35.3,39.6,40.6,29.7,46
			c-1.5,0.8-1.5,3.1,0,3.9c5.4,2.9,10.7,5.8,16.1,8.7c3.3,1.8,6.6,3.6,10,5.4c1.2,0.7,3.2,2.2,4.7,2.2c1.5,0,3.4-1.5,4.7-2.2
			c3.3-1.8,6.6-3.6,9.9-5.4c5.3-2.9,10.7-5.8,16-8.7c1.5-0.8,1.5-3.1,0-3.9C81.2,40.6,71.4,35.3,61.6,30
			C59,28.7,56.7,32.5,59.3,33.9z"/>
		<path d="M88.7,45.9c-9.8,5.3-19.7,10.7-29.5,16c-0.7,0.4-1.1,1.2-1.1,1.9c0,11.8,0,23.7,0,35.5c0,1.7,1.9,2.8,3.4,1.9
			c8.7-5.3,17.4-10.6,26.1-15.9c2.7-1.7,4.5-2.2,4.5-5.6c0.1-5.1,0-10.1,0-15.2c0-2.9-4.5-2.9-4.5,0c0,5.6,0,11.2,0,16.8
			c0.4-0.6,0.7-1.3,1.1-1.9c-9.8,6-19.7,12-29.5,18c1.1,0.6,2.3,1.3,3.4,1.9c0-11.8,0-23.7,0-35.5c-0.4,0.6-0.7,1.3-1.1,1.9
			c9.8-5.3,19.7-10.7,29.5-16C93.5,48.4,91.3,44.5,88.7,45.9L88.7,45.9z"/>
		<path d="M29.7,49.8c9.8,5.3,19.7,10.7,29.5,16c-0.4-0.6-0.7-1.3-1.1-1.9c0,11.8,0,23.7,0,35.5c1.1-0.6,2.3-1.3,3.4-1.9
			c-9.8-6-19.7-12-29.5-18c0.4,0.6,0.7,1.3,1.1,1.9c0-11.2,0-22.3,0-33.5c0-2.9-4.5-2.9-4.5,0c0,6.1,0,12.2,0,18.2
			c0,3.8,0,7.5,0,11.3c0,1.6-0.4,4,0.5,5.4c0.9,1.3,3.4,2.2,4.6,3c3.3,2,6.6,4,9.9,6c5.2,3.2,10.4,6.3,15.6,9.5
			c1.5,0.9,3.4-0.3,3.4-1.9c0-11.8,0-23.7,0-35.5c0-0.8-0.4-1.6-1.1-1.9c-9.8-5.3-19.7-10.7-29.5-16C29.4,44.5,27.2,48.4,29.7,49.8z
			"/>
		<path d="M59.2,65.8c4.3,2.3,8.7,4.6,13,6.9c3.2,1.6,4.4,0.7,7.4-1c8.9-4.8,17.7-9.6,26.6-14.4c1.4-0.8,1.5-3.1,0-3.9
			c-4.4-2.2-8.8-4.3-13.2-6.5c-3.3-1.6-4.4-1-7.6,0.7c-8.8,4.7-17.5,9.5-26.3,14.2c-2.5,1.4-0.3,5.3,2.3,3.9
			c9.8-5.3,19.7-10.7,29.5-16c-0.8,0-1.5,0-2.3,0c5.1,2.5,10.2,5,15.3,7.5c0-1.3,0-2.6,0-3.9c-10,5.4-20,10.9-30,16.3
			c0.8,0,1.5,0,2.3,0c-4.9-2.6-9.8-5.2-14.8-7.8C58.9,60.5,56.7,64.4,59.2,65.8z"/>
		<path d="M32.5,46c-5.1-2.6-10.1-5.2-15.2-7.8c0,1.3,0,2.6,0,3.9c9.8-5.4,19.6-10.9,29.4-16.3c-0.8,0-1.5,0-2.3,0
			c4.9,2.7,9.9,5.5,14.8,8.2c0-1.3,0-2.6,0-3.9C49.6,35.3,39.9,40.6,30.2,46c-2.5,1.4-0.3,5.3,2.3,3.9c9.7-5.3,19.4-10.6,29.1-15.9
			c1.5-0.8,1.5-3.1,0-3.9c-4.3-2.4-8.6-4.7-12.8-7.1c-3.3-1.8-4.4-1-7.5,0.7c-8.7,4.8-17.4,9.7-26.2,14.5c-1.4,0.8-1.5,3.1,0,3.9
			c5.1,2.6,10.1,5.2,15.2,7.8C32.8,51.2,35.1,47.3,32.5,46z"/>
		<g>
			<path d="M39.4,72.3c3.5,2,7,4,10.4,6c2.2,1.2,4.1-2.1,1.9-3.4c-3.5-2-7-4-10.4-6C39.2,67.7,37.2,71,39.4,72.3L39.4,72.3z"/>
			<path d="M43.7,67.6c0,4,0,8,0,12c0,2.5,3.9,2.5,3.9,0c0-4,0-8,0-12C47.5,65.1,43.7,65.1,43.7,67.6L43.7,67.6z"/>
		</g>
	</g>
</g>
</svg>
