<?xml version="1.0" encoding="iso-8859-1"?>
<!-- Generator: Adobe Illustrator 18.1.1, SVG Export Plug-In . SVG Version: 6.00 Build 0)  -->
<!DOCTYPE svg PUBLIC "-//W3C//DTD SVG 1.1//EN" "http://www.w3.org/Graphics/SVG/1.1/DTD/svg11.dtd">
<svg version="1.1" xmlns="http://www.w3.org/2000/svg" xmlns:xlink="http://www.w3.org/1999/xlink" x="0px" y="0px"
	 viewBox="0 0 100 100" enable-background="new 0 0 100 100" xml:space="preserve">
<g id="Layer_3">
</g>
<g id="Layer_2">
</g>
<g id="Layer_1">
	<g>
		<circle fill="#FFFFFF" stroke="#D1D3D4" stroke-width="6" stroke-miterlimit="10" cx="50.977" cy="49.685" r="46.525"/>
		<g>
			<path fill="#D1D3D4" d="M38.806,50.549L19.502,69.42c-0.917,0.896-0.282,2.452,1,2.452h56.471c1.265,0,1.907-1.522,1.024-2.428
				L64.505,55.606c-0.525-0.538-1.377-0.578-1.95-0.091l-8.056,6.846c-0.567,0.482-1.409,0.448-1.936-0.077L40.816,50.56
				C40.262,50.007,39.366,50.002,38.806,50.549z"/>
			<circle fill="#D1D3D4" cx="66.177" cy="34.573" r="5.32"/>
		</g>
		<g>
			<g>
				<g>
					<path fill="#A7A9AC" d="M58.318,40.187c-5.613,5.613-11.227,11.227-16.84,16.84c-1.39,1.39,0.767,3.548,2.157,2.157
						c5.613-5.613,11.227-11.227,16.84-16.84C61.865,40.954,59.709,38.796,58.318,40.187L58.318,40.187z"/>
				</g>
			</g>
			<g>
				<g>
					<path fill="#A7A9AC" d="M60.475,57.027c-5.613-5.613-11.227-11.227-16.84-16.84c-1.39-1.39-3.548,0.767-2.157,2.157
						c5.613,5.613,11.227,11.227,16.84,16.84C59.708,60.574,61.866,58.417,60.475,57.027L60.475,57.027z"/>
				</g>
			</g>
		</g>
	</g>
</g>
</svg>
