<?xml version="1.0" encoding="iso-8859-1"?>
<!-- Generator: Adobe Illustrator 18.1.1, SVG Export Plug-In . SVG Version: 6.00 Build 0)  -->
<!DOCTYPE svg PUBLIC "-//W3C//DTD SVG 1.1//EN" "http://www.w3.org/Graphics/SVG/1.1/DTD/svg11.dtd">
<svg version="1.1" xmlns="http://www.w3.org/2000/svg" xmlns:xlink="http://www.w3.org/1999/xlink" x="0px" y="0px"
	 viewBox="0 0 100 100" style="enable-background:new 0 0 100 100;" xml:space="preserve">
<g id="Layer_3">
</g>
<g id="Layer_2">
</g>
<g id="Layer_1">
	<path style="fill:#F57C00;" d="M94.64,67.304c0-0.073-0.145-0.145-0.145-0.218c0-0.073-0.145-0.073-0.145-0.145l0,0
		c-0.726-1.38-0.872-2.688-1.816-3.85c-0.654-0.799-1.307-1.598-2.106-2.252c-0.073-0.073-0.073-0.073-0.218-0.145l-6.537-4.649
		c-0.436-0.291-0.799-0.581-1.235-0.944c-1.598-1.453-2.76-3.414-2.905-5.375c0.145-1.961,1.235-3.922,2.905-5.375
		c0.436-0.291,0.799-0.581,1.235-0.944l6.537-4.649c0.073-0.073,0.145-0.073,0.218-0.145c0.872-0.654,1.453-1.453,2.106-2.252
		c0.944-1.162,1.09-2.47,1.816-3.85l0,0c0-1.307,0.508-2.615,0.436-3.922c-0.218-2.542-1.017-5.012-2.47-7.118
		c-0.654-0.944-1.38-1.889-2.252-2.688c0,0,0,0-0.073-0.073c-0.654-0.654-1.453-1.307-2.179-1.816c0,0-0.073,0-0.073-0.073
		c-2.615-1.889-6.174-2.47-9.298-1.816c-0.073,0-0.073,0-0.145,0s-0.073,0-0.145,0c-1.38,0.363-2.76,0.872-3.922,1.743l-7.118,5.303
		c-0.291,0.145-0.508,0.363-0.726,0.508c-1.961,1.162-4.504,1.816-6.683,0.654c-1.598-0.872-2.978-2.47-3.559-4.213
		c-1.017-2.978-1.889-6.029-2.833-9.007c-0.291-0.944-0.726-1.816-1.307-2.542c-0.291-0.508-0.654-1.017-1.017-1.453
		c-0.799-0.944-1.743-1.816-2.905-2.47c-1.09-0.581-2.252-1.09-3.414-1.38c-0.654-0.073-1.453-0.145-2.179-0.073
		c-0.726,0-1.453,0.073-2.106,0.145c-1.162,0.073-2.324,0.363-3.487,0.726c-0.073,0-0.145,0.073-0.218,0.073h-0.073
		c-1.743,0.581-3.487,1.525-4.939,2.615c0,0-0.073,0-0.073,0.073c-2.833,2.324-4.649,5.52-4.576,9.298
		c-0.073,1.162,0.073,2.397,0.436,3.559l2.833,8.426c0.145,0.363,0.218,0.726,0.363,1.017c0.363,1.889,0.145,3.922-0.726,5.448
		c-1.162,2.106-4.14,2.905-6.392,2.905l-8.862-0.073c-1.453,0-2.905,0.363-4.286,0.872c-3.559,1.525-6.319,4.504-7.482,8.135
		C2.463,46.747,2.1,48.345,2.1,49.871l0,0c0,1.525,0.436,3.051,0.799,4.576c1.162,3.632,3.487,6.755,7.264,8.135
		c1.307,0.581,2.833,0.872,4.358,0.872l8.934-0.073c2.397,0,5.012,0.872,6.465,2.905c0.872,1.525,1.09,3.559,0.726,5.448
		c-0.073,0.363-0.218,0.654-0.291,1.017l-2.833,8.426c-0.363,1.162-0.508,2.397-0.436,3.559c-0.073,3.777,1.816,6.973,4.576,9.298
		c0,0,0.073,0,0.073,0.073c0.436,0.291,0.872,0.581,1.307,0.872c2.179,1.453,4.867,2.324,7.409,2.542
		c1.38,0.145,3.051,0.363,4.358,0c1.162-0.291,2.397-0.799,3.414-1.38c1.162-0.654,2.106-1.525,2.905-2.47
		c0.363-0.436,0.726-0.944,1.017-1.453c0.508-0.799,0.944-1.598,1.307-2.542c0,0,2.688-8.426,2.688-8.499
		c0.581-1.889,1.961-3.705,3.705-4.721c0,0,0.073,0,0.073-0.073c2.034-1.09,4.867-0.654,6.683,0.654
		c0.218,0.145,0.508,0.363,0.726,0.508l7.118,5.303c1.235,0.944,2.688,1.38,4.213,1.743c0.654,0.145,1.307,0.145,1.961,0.145h0.145
		c2.397,0.726,5.23-0.581,7.191-1.961h0.073c0.508-0.363,1.09-0.799,1.598-1.235c0.726-0.654,1.453-1.38,2.034-2.179
		c0.073-0.073,0.073-0.145,0.145-0.218c1.09-1.453,2.179-3.051,2.542-4.867c0.073-0.145,0.073-0.363,0.145-0.581
		c0.291-0.872,0.436-1.743,0.508-2.688C95.003,69.701,94.93,68.466,94.64,67.304z"/>
</g>
</svg>
