<?xml version="1.0" encoding="iso-8859-1"?>
<!-- Generator: Adobe Illustrator 18.1.1, SVG Export Plug-In . SVG Version: 6.00 Build 0)  -->
<!DOCTYPE svg PUBLIC "-//W3C//DTD SVG 1.1//EN" "http://www.w3.org/Graphics/SVG/1.1/DTD/svg11.dtd">
<svg version="1.1" xmlns="http://www.w3.org/2000/svg" xmlns:xlink="http://www.w3.org/1999/xlink" x="0px" y="0px"
	 viewBox="0 0 100 100" enable-background="new 0 0 100 100" xml:space="preserve">
<g id="Layer_3">
</g>
<g id="Layer_2">
</g>
<g id="Layer_1">
	<circle fill="#FF6F65" cx="50.524" cy="50.049" r="48.948"/>
	<path opacity="0.2" fill="#FF6F65" d="M50.921,1.11v97.877c26.849-0.215,48.551-22.038,48.551-48.938S77.771,1.325,50.921,1.11z"/>
	<g>
		<path fill="#FFFFFF" d="M88.819,50.016c-0.532-1.117-1.346-1.973-2.437-2.566c-1.093-0.596-2.293-0.892-3.605-0.892h-6.992v-5.827
			c0-2.232-0.801-4.151-2.403-5.752c-1.604-1.602-3.52-2.403-5.754-2.403H47.822v-1.165c0-2.235-0.803-4.153-2.405-5.755
			c-1.602-1.602-3.52-2.403-5.752-2.403H28.013c-2.235,0-4.153,0.801-5.755,2.403c-1.602,1.602-2.403,3.52-2.403,5.755v34.955
			c0,2.232,0.801,4.151,2.403,5.752c1.602,1.602,3.52,2.404,5.755,2.404H67.63c1.626,0,3.326-0.419,5.098-1.257
			c1.771-0.838,3.179-1.901,4.222-3.186l10.743-13.218c1.115-1.407,1.674-2.863,1.674-4.369
			C89.367,51.618,89.186,50.793,88.819,50.016L88.819,50.016z M24.517,31.411c0-0.972,0.34-1.796,1.019-2.477
			c0.679-0.679,1.506-1.019,2.477-1.019h11.651c0.971,0,1.796,0.34,2.477,1.019c0.678,0.681,1.019,1.506,1.019,2.477v2.33
			c0,0.972,0.34,1.796,1.019,2.475c0.679,0.681,1.506,1.021,2.477,1.021H67.63c0.971,0,1.796,0.339,2.474,1.019
			c0.681,0.679,1.02,1.504,1.02,2.475v5.827H43.16c-1.65,0-3.35,0.419-5.098,1.257c-1.748,0.838-3.156,1.898-4.225,3.186
			l-9.32,11.47V31.411z M84.051,53.912L73.345,67.13c-0.607,0.753-1.469,1.397-2.584,1.929c-1.117,0.535-2.16,0.803-3.131,0.803
			H28.013c-1.288,0-1.931-0.426-1.931-1.277c0-0.387,0.218-0.873,0.656-1.456l10.704-13.218c0.631-0.753,1.499-1.39,2.604-1.912
			c1.104-0.522,2.143-0.783,3.114-0.783h39.616c1.288,0,1.929,0.425,1.929,1.274C84.706,52.906,84.487,53.379,84.051,53.912
			L84.051,53.912z M84.051,53.912"/>
	</g>
	<path fill="#FFFFFF" d="M64.385,62.596c0-0.01-0.03-0.02-0.03-0.03s-0.03-0.01-0.03-0.02l0,0c-0.152-0.187-0.182-0.365-0.38-0.522
		c-0.137-0.108-0.273-0.217-0.44-0.306c-0.015-0.01-0.015-0.01-0.046-0.02l-1.367-0.631c-0.091-0.039-0.167-0.079-0.258-0.128
		c-0.334-0.197-0.577-0.463-0.607-0.729c0.03-0.266,0.258-0.532,0.607-0.729c0.091-0.039,0.167-0.079,0.258-0.128l1.367-0.631
		c0.015-0.01,0.03-0.01,0.046-0.02c0.182-0.089,0.304-0.197,0.44-0.306c0.197-0.158,0.228-0.335,0.38-0.522l0,0
		c0-0.177,0.106-0.355,0.091-0.532c-0.046-0.345-0.213-0.68-0.516-0.966c-0.137-0.128-0.288-0.256-0.471-0.365c0,0,0,0-0.015-0.01
		c-0.137-0.089-0.304-0.177-0.456-0.246c0,0-0.015,0-0.015-0.01c-0.547-0.256-1.291-0.335-1.943-0.246c-0.015,0-0.015,0-0.03,0
		c-0.015,0-0.015,0-0.03,0c-0.288,0.049-0.577,0.118-0.82,0.237l-1.488,0.72c-0.061,0.02-0.106,0.049-0.152,0.069
		c-0.41,0.158-0.941,0.246-1.397,0.089c-0.334-0.118-0.623-0.335-0.744-0.572c-0.213-0.404-0.395-0.818-0.592-1.222
		c-0.061-0.128-0.152-0.246-0.273-0.345c-0.061-0.069-0.137-0.138-0.213-0.197c-0.167-0.128-0.364-0.246-0.607-0.335
		c-0.228-0.079-0.471-0.148-0.714-0.187c-0.137-0.01-0.304-0.02-0.456-0.01c-0.152,0-0.304,0.01-0.44,0.02
		c-0.243,0.01-0.486,0.049-0.729,0.099c-0.015,0-0.03,0.01-0.046,0.01h-0.015c-0.364,0.079-0.729,0.207-1.032,0.355
		c0,0-0.015,0-0.015,0.01c-0.592,0.315-0.972,0.749-0.957,1.262c-0.015,0.158,0.015,0.325,0.091,0.483l0.592,1.143
		c0.03,0.049,0.046,0.099,0.076,0.138c0.076,0.256,0.03,0.532-0.152,0.739c-0.243,0.286-0.865,0.394-1.336,0.394l-1.852-0.01
		c-0.304,0-0.607,0.049-0.896,0.118c-0.744,0.207-1.321,0.611-1.564,1.104c-0.091,0.197-0.167,0.414-0.167,0.621l0,0
		c0,0.207,0.091,0.414,0.167,0.621c0.243,0.493,0.729,0.917,1.518,1.104c0.273,0.079,0.592,0.118,0.911,0.118l1.868-0.01
		c0.501,0,1.048,0.118,1.351,0.394c0.182,0.207,0.228,0.483,0.152,0.739c-0.015,0.049-0.046,0.089-0.061,0.138l-0.592,1.143
		c-0.076,0.158-0.106,0.325-0.091,0.483c-0.015,0.513,0.38,0.946,0.957,1.262c0,0,0.015,0,0.015,0.01
		c0.091,0.039,0.182,0.079,0.273,0.118c0.456,0.197,1.017,0.315,1.549,0.345c0.288,0.02,0.638,0.049,0.911,0
		c0.243-0.039,0.501-0.108,0.714-0.187c0.243-0.089,0.44-0.207,0.607-0.335c0.076-0.059,0.152-0.128,0.213-0.197
		c0.106-0.108,0.197-0.217,0.273-0.345c0,0,0.562-1.143,0.562-1.153c0.121-0.256,0.41-0.503,0.774-0.641c0,0,0.015,0,0.015-0.01
		c0.425-0.148,1.017-0.089,1.397,0.089c0.046,0.02,0.106,0.049,0.152,0.069l1.488,0.72c0.258,0.128,0.562,0.187,0.881,0.237
		c0.137,0.02,0.273,0.02,0.41,0.02h0.03c0.501,0.099,1.093-0.079,1.503-0.266h0.015c0.106-0.049,0.228-0.108,0.334-0.168
		c0.152-0.089,0.304-0.187,0.425-0.296c0.015-0.01,0.015-0.02,0.03-0.03c0.228-0.197,0.456-0.414,0.531-0.66
		c0.015-0.02,0.015-0.049,0.03-0.079c0.061-0.118,0.091-0.237,0.106-0.365C64.46,62.922,64.445,62.754,64.385,62.596z"/>
	<circle fill="#1C85BC" cx="50.524" cy="50.049" r="48.948"/>
	<path opacity="0.83" fill="#0075BC" d="M50.921,1.11v97.877c26.849-0.215,48.551-22.038,48.551-48.938S77.771,1.325,50.921,1.11z"
		/>
	<g>
		<path fill="#FFFFFF" d="M74.179,21.909h-2.042c0.052-0.168,0.105-0.337,0.105-0.523c0-0.969-0.78-1.751-1.749-1.751
			c-0.969,0-1.751,0.782-1.751,1.751c0,0.187,0.055,0.355,0.107,0.523H62.15c0.052-0.168,0.107-0.337,0.107-0.523
			c0-0.969-0.782-1.751-1.751-1.751c-0.96,0-1.749,0.782-1.749,1.751c0,0.187,0.052,0.355,0.107,0.523h-6.691
			c0.045-0.168,0.098-0.337,0.098-0.523c0-0.969-0.782-1.751-1.74-1.751c-0.969,0-1.751,0.782-1.751,1.751
			c0,0.187,0.052,0.355,0.107,0.523h-6.698c0.052-0.168,0.105-0.337,0.105-0.523c0-0.969-0.78-1.751-1.749-1.751
			c-0.969,0-1.751,0.782-1.751,1.751c0,0.187,0.055,0.355,0.107,0.523H32.2c0.052-0.168,0.107-0.337,0.107-0.523
			c0-0.969-0.782-1.751-1.742-1.751c-0.969,0-1.749,0.782-1.749,1.751c0,0.187,0.043,0.355,0.098,0.523h-2.045
			c-2.763,0-5.001,2.247-5.001,5.002v47.311c0,2.763,2.238,5.002,5.001,5.002H68.53l10.651-10.651V26.911
			C79.181,24.156,76.943,21.909,74.179,21.909L74.179,21.909z M76.454,67.444l-0.569,0.56h-4.283c-1.999,0-3.641,1.642-3.641,3.641
			v4.292l-0.56,0.56H26.868c-1.253,0-2.274-1.021-2.274-2.274V36.009h51.86V67.444z M76.454,67.444"/>
		<path fill="#FFFFFF" d="M39.378,57.9"/>
		<path fill="#FFFFFF" d="M51.471,51.912"/>
	</g>
	<text transform="matrix(1 0 0 1 40.7581 66.3018)" fill="#FFFFFF" font-family="'Roboto-Black'" font-size="29.7152">1</text>
	<text transform="matrix(1 0 0 1 23.5763 34.7873)"><tspan x="0" y="0" fill="#1C85BC" font-family="'Roboto-Black'" font-size="15">MO</tspan><tspan x="23.504" y="0" fill="#1C85BC" font-family="'Roboto-Black'" font-size="15">N</tspan><tspan x="33.823" y="0" fill="#1C85BC" font-family="'Roboto-Black'" font-size="15">TH</tspan></text>
</g>
</svg>
