<?xml version="1.0" encoding="iso-8859-1"?>
<!-- Generator: Adobe Illustrator 18.1.1, SVG Export Plug-In . SVG Version: 6.00 Build 0)  -->
<!DOCTYPE svg PUBLIC "-//W3C//DTD SVG 1.1//EN" "http://www.w3.org/Graphics/SVG/1.1/DTD/svg11.dtd">
<svg version="1.1" xmlns="http://www.w3.org/2000/svg" xmlns:xlink="http://www.w3.org/1999/xlink" x="0px" y="0px"
	 viewBox="0 0 100 100" enable-background="new 0 0 100 100" xml:space="preserve">
<g id="Layer_3">
</g>
<g id="Layer_2">
</g>
<g id="Layer_1">
	<circle fill="#FEA700" cx="49.996" cy="50.153" r="49.154"/>
	<path opacity="0.21" fill="#F15A29" d="M50.742,1.019v98.269C77.543,98.888,99.15,77.05,99.15,50.154
		C99.15,23.257,77.543,1.419,50.742,1.019z"/>
	<g>
		<g>
			<path fill="#FFFFFF" d="M71.908,33.994c0.483,0.2,1.038-0.029,1.239-0.513l1.022-2.465c0.201-0.484-0.029-1.038-0.513-1.239
				L46.31,18.438c-0.484-0.201-1.039,0.029-1.239,0.513l-1.022,2.465c-0.2,0.484,0.029,1.038,0.513,1.239L71.908,33.994z
				 M71.259,34.272"/>
			<path fill="#FFFFFF" d="M76.297,23.408l-27.347-11.34c-0.484-0.2-1.038,0.029-1.239,0.513l-1.022,2.465
				c-0.201,0.484,0.029,1.039,0.513,1.239l27.347,11.339c0.484,0.201,1.038-0.029,1.239-0.513l1.022-2.465
				C77.011,24.164,76.781,23.609,76.297,23.408L76.297,23.408z M75.502,24.039"/>
			<path fill="#FFFFFF" d="M40.058,86.327c0.883,0.366,1.895-0.053,2.261-0.936l4.156-10.024c0.366-0.883-0.053-1.895-0.936-2.261
				l-1.902-0.789l8.25-19.897c-0.919-0.654-1.913-1.207-2.964-1.643c-1.058-0.439-2.146-0.752-3.255-0.94l-8.252,19.9l-1.902-0.789
				c-0.883-0.366-1.895,0.053-2.261,0.936l-4.156,10.024c-0.366,0.883,0.053,1.895,0.936,2.261L40.058,86.327z M33.675,75.933
				c0.941-2.271,3.546-3.348,5.817-2.407c2.271,0.941,3.348,3.546,2.407,5.817c-0.942,2.271-3.546,3.348-5.817,2.407
				C33.811,80.808,32.733,78.204,33.675,75.933L33.675,75.933z M33.675,75.933"/>
		</g>
		<path fill="none" stroke="#FFFFFF" stroke-width="4" stroke-miterlimit="10" d="M33.236,51.24c0.04-0.016,0.079-0.038,0.118-0.066
			c1.076-0.785,2.24-1.437,3.465-1.944c2.95-1.221,6.249-1.598,9.505-0.97c1.09,0.21,2.175,0.533,3.241,0.975
			c1.066,0.442,2.061,0.982,2.98,1.605c3.884,2.632,6.404,6.748,7.102,11.236c0.059,0.38,0.447,0.534,0.742,0.412
			c0.121-0.05,0.225-0.146,0.285-0.291l9.275-22.369c0.203-0.49-0.029-1.052-0.52-1.256L43.074,27.644
			c-0.245-0.102-0.509-0.095-0.736-0.001c-0.227,0.094-0.419,0.275-0.52,0.52l-9.275,22.369
			C32.353,50.989,32.821,51.412,33.236,51.24L33.236,51.24z M50.77,39.515c0.533-1.285,2.007-1.895,3.292-1.362
			c1.285,0.533,1.895,2.007,1.362,3.292c-0.533,1.285-2.007,1.895-3.292,1.362C50.846,42.274,50.236,40.8,50.77,39.515L50.77,39.515
			z M50.77,39.515"/>
	</g>
</g>
</svg>
