<?xml version="1.0" encoding="iso-8859-1"?>
<!-- Generator: Adobe Illustrator 18.1.1, SVG Export Plug-In . SVG Version: 6.00 Build 0)  -->
<!DOCTYPE svg PUBLIC "-//W3C//DTD SVG 1.1//EN" "http://www.w3.org/Graphics/SVG/1.1/DTD/svg11.dtd">
<svg version="1.1" xmlns="http://www.w3.org/2000/svg" xmlns:xlink="http://www.w3.org/1999/xlink" x="0px" y="0px"
	 viewBox="0 0 100 100" enable-background="new 0 0 100 100" xml:space="preserve">
<g id="Layer_3">
</g>
<g id="Layer_2">
</g>
<g id="Layer_1">
	<circle fill="#FBB040" cx="49.861" cy="49.33" r="48.33"/>
	<path opacity="0.2" fill="#F7941E" d="M49.913,1.001v96.658c26.668-0.028,48.279-21.654,48.279-48.329
		C98.191,22.655,76.581,1.029,49.913,1.001z"/>
	<g>
		<g>
			<g>
				<path fill="#FFFFFF" stroke="#FFFFFF" stroke-miterlimit="10" d="M74.228,38.685c2.52,0,4.569-2.641,4.569-5.887v-7.64
					c0-3.246-2.05-5.886-4.569-5.886H26.286c-2.52,0-4.57,2.641-4.57,5.886v7.64c0,3.246,2.05,5.887,4.57,5.887h21.301v1.402H26.286
					c-2.52,0-4.57,2.641-4.57,5.887v7.64c0,3.246,2.05,5.886,4.57,5.886h21.301v1.362H26.286c-2.52,0-4.57,2.641-4.57,5.887v7.64
					c0,3.246,2.05,5.886,4.57,5.886h47.942c2.52,0,4.57-2.64,4.57-5.886v-7.64c0-3.246-2.05-5.886-4.57-5.886H52.971V59.5h21.257
					c2.52,0,4.57-2.64,4.57-5.886v-7.64c0-3.246-2.05-5.886-4.57-5.886H52.971v-1.402H74.228z M23.87,32.797v-7.64
					c0-1.716,1.083-3.111,2.416-3.111h47.942c1.332,0,2.416,1.396,2.416,3.111v7.64c0,1.717-1.084,3.112-2.416,3.112H26.286
					C24.953,35.909,23.87,34.514,23.87,32.797L23.87,32.797z M76.643,66.749v7.64c0,1.716-1.084,3.112-2.416,3.112H26.286
					c-1.332,0-2.416-1.397-2.416-3.112v-7.64c0-1.716,1.083-3.111,2.416-3.111h47.942C75.559,63.637,76.643,65.034,76.643,66.749
					L76.643,66.749z M50.818,60.862H49.74V59.5h1.077V60.862z M76.643,45.973v7.64c0,1.716-1.084,3.111-2.416,3.111H26.286
					c-1.332,0-2.416-1.396-2.416-3.111v-7.64c0-1.717,1.083-3.112,2.416-3.112h47.942C75.559,42.861,76.643,44.258,76.643,45.973
					L76.643,45.973z M50.818,40.086H49.74v-1.402h1.077V40.086z M50.818,40.086"/>
			</g>
			<g>
				<ellipse fill="#FFFFFF" stroke="#FFFFFF" stroke-miterlimit="10" cx="29.258" cy="29.228" rx="1.641" ry="2.022"/>
				<ellipse fill="#FFFFFF" stroke="#FFFFFF" stroke-miterlimit="10" cx="63.72" cy="29.228" rx="1.641" ry="2.022"/>
				<ellipse fill="#FFFFFF" stroke="#FFFFFF" stroke-miterlimit="10" cx="71.24" cy="29.228" rx="1.641" ry="2.022"/>
				<g>
					<ellipse fill="#FFFFFF" stroke="#FFFFFF" stroke-miterlimit="10" cx="55.882" cy="29.228" rx="1.641" ry="2.022"/>
					<ellipse fill="#FFFFFF" stroke="#FFFFFF" stroke-miterlimit="10" cx="37.653" cy="29.228" rx="1.641" ry="2.022"/>
					<rect x="37.653" y="27.206" fill="#FFFFFF" stroke="#FFFFFF" stroke-miterlimit="10" width="18.229" height="4.043"/>
				</g>
			</g>
			<g>
				<ellipse fill="#FFFFFF" stroke="#FFFFFF" stroke-miterlimit="10" cx="29.258" cy="49.773" rx="1.641" ry="2.022"/>
				<ellipse fill="#FFFFFF" stroke="#FFFFFF" stroke-miterlimit="10" cx="63.72" cy="49.773" rx="1.641" ry="2.022"/>
				<ellipse fill="#FFFFFF" stroke="#FFFFFF" stroke-miterlimit="10" cx="71.24" cy="49.773" rx="1.641" ry="2.022"/>
				<g>
					<ellipse fill="#FFFFFF" stroke="#FFFFFF" stroke-miterlimit="10" cx="55.882" cy="49.773" rx="1.641" ry="2.022"/>
					<ellipse fill="#FFFFFF" stroke="#FFFFFF" stroke-miterlimit="10" cx="37.653" cy="49.773" rx="1.641" ry="2.022"/>
					<rect x="37.653" y="47.752" fill="#FFFFFF" stroke="#FFFFFF" stroke-miterlimit="10" width="18.229" height="4.043"/>
				</g>
			</g>
			<g>
				<ellipse fill="#FFFFFF" stroke="#FFFFFF" stroke-miterlimit="10" cx="29.258" cy="70.777" rx="1.641" ry="2.022"/>
				<ellipse fill="#FFFFFF" stroke="#FFFFFF" stroke-miterlimit="10" cx="63.72" cy="70.777" rx="1.641" ry="2.022"/>
				<ellipse fill="#FFFFFF" stroke="#FFFFFF" stroke-miterlimit="10" cx="71.24" cy="70.777" rx="1.641" ry="2.022"/>
				<g>
					<ellipse fill="#FFFFFF" stroke="#FFFFFF" stroke-miterlimit="10" cx="55.882" cy="70.777" rx="1.641" ry="2.022"/>
					<ellipse fill="#FFFFFF" stroke="#FFFFFF" stroke-miterlimit="10" cx="37.653" cy="70.777" rx="1.641" ry="2.022"/>
					<rect x="37.653" y="68.755" fill="#FFFFFF" stroke="#FFFFFF" stroke-miterlimit="10" width="18.229" height="4.043"/>
				</g>
			</g>
		</g>
	</g>
</g>
</svg>
