<?xml version="1.0" encoding="iso-8859-1"?>
<!-- Generator: Adobe Illustrator 18.1.1, SVG Export Plug-In . SVG Version: 6.00 Build 0)  -->
<!DOCTYPE svg PUBLIC "-//W3C//DTD SVG 1.1//EN" "http://www.w3.org/Graphics/SVG/1.1/DTD/svg11.dtd">
<svg version="1.1" xmlns="http://www.w3.org/2000/svg" xmlns:xlink="http://www.w3.org/1999/xlink" x="0px" y="0px"
	 viewBox="0 0 100 100" enable-background="new 0 0 100 100" xml:space="preserve">
<g id="Layer_3">
</g>
<g id="Layer_2">
</g>
<g id="Layer_1">
	<circle fill="#FFE300" cx="50.041" cy="49.911" r="49.044"/>
	<path opacity="0.52" fill="#FFCE00" d="M50.094,0.868v98.085c27.062-0.028,48.992-21.974,48.992-49.043
		C99.085,22.842,77.156,0.897,50.094,0.868z"/>
	<g>
		<path fill="none" stroke="#FFFFFF" stroke-width="6" stroke-miterlimit="10" d="M49.96,13.634c8.941,0,16.192,7.254,16.192,16.184
			c0,8.941-7.251,16.181-16.192,16.181c-8.93,0-16.173-7.24-16.173-16.181C33.787,20.888,41.03,13.634,49.96,13.634L49.96,13.634z
			 M49.949,84.073c-8.909,0-17.084-3.253-23.381-8.627c-1.531-1.311-2.415-3.221-2.415-5.247c0-9.056,7.337-16.307,16.393-16.307
			h18.838c9.067,0,16.369,7.251,16.369,16.307c0,2.026-0.881,3.936-2.413,5.247C67.044,80.819,58.869,84.073,49.949,84.073
			L49.949,84.073z M49.949,84.073"/>
	</g>
</g>
</svg>
