<?xml version="1.0" encoding="iso-8859-1"?>
<!-- Generator: Adobe Illustrator 18.1.1, SVG Export Plug-In . SVG Version: 6.00 Build 0)  -->
<!DOCTYPE svg PUBLIC "-//W3C//DTD SVG 1.1//EN" "http://www.w3.org/Graphics/SVG/1.1/DTD/svg11.dtd">
<svg version="1.1" xmlns="http://www.w3.org/2000/svg" xmlns:xlink="http://www.w3.org/1999/xlink" x="0px" y="0px"
	 viewBox="0 0 100 100" enable-background="new 0 0 100 100" xml:space="preserve">
<g id="Layer_3">
</g>
<g id="Layer_2">
</g>
<g id="Layer_1">
	<circle fill="#33DDF2" cx="50.008" cy="49.342" r="49.242"/>
	<path opacity="0.26" fill="#27C1E1" d="M50.079,0.102v98.48c27.163-0.039,49.171-22.068,49.171-49.24S77.242,0.141,50.079,0.102z"
		/>
	<circle fill="none" stroke="#FFFFFF" stroke-width="2.3876" stroke-miterlimit="10" cx="50.069" cy="49.365" r="39.605"/>
	<path fill="none" stroke="#FFFFFF" stroke-width="2.3876" stroke-miterlimit="10" d="M15.826,64.418
		c-0.037,0.071-0.073,0.142-0.109,0.213c5.261,12.014,16.605,20.748,30.141,22.312c0.002-0.009,0.003-0.017,0.005-0.026
		C32.336,85.281,21.019,76.482,15.826,64.418z"/>
	<path fill="none" stroke="#FFFFFF" stroke-width="2.3876" stroke-miterlimit="10" d="M38.247,13.909
		c0.006-0.025,0.011-0.051,0.017-0.076c-8.578,2.872-15.78,8.739-20.356,16.368c0.083-0.024,0.165-0.05,0.248-0.074
		C22.695,22.6,29.795,16.798,38.247,13.909z"/>
	<path fill="none" stroke="#FFFFFF" stroke-width="2.3876" stroke-miterlimit="10" d="M17.032,32.143
		c-0.079,0.021-0.159,0.041-0.238,0.063c-2.633,5.066-4.149,10.802-4.22,16.889c0.069-0.007,0.137-0.015,0.206-0.022
		C12.856,42.968,14.383,37.217,17.032,32.143z"/>
	<path fill="none" stroke="#FFFFFF" stroke-width="2.3876" stroke-miterlimit="10" d="M47.506,87.094
		c0.898,0.064,1.802,0.108,2.717,0.108c0.035,0,0.068-0.003,0.103-0.003c-0.948-0.003-1.886-0.05-2.817-0.121
		C47.508,87.084,47.507,87.089,47.506,87.094z"/>
	<path fill="none" stroke="#FFFFFF" stroke-width="2.3876" stroke-miterlimit="10" d="M49.161,11.916
		c0.002-0.002,0.003-0.004,0.005-0.005c-3.119,0.086-6.142,0.55-9.026,1.35c-0.006,0.021-0.012,0.042-0.018,0.064
		C43.008,12.503,46.035,12.019,49.161,11.916z"/>
	<path fill="none" stroke="#FFFFFF" stroke-width="2.3876" stroke-miterlimit="10" d="M15.019,62.387
		c-1.327-3.656-2.094-7.579-2.22-11.663c-0.069,0.007-0.136,0.019-0.205,0.026c0.131,4.161,0.929,8.154,2.305,11.869
		C14.94,62.543,14.977,62.464,15.019,62.387z"/>
	<g>
		<path fill="none" stroke="#FFFFFF" stroke-width="2.3876" stroke-miterlimit="10" d="M38.227,23.051
			c-0.315,2.638-0.495,5.316-0.495,8.037c0,1.552,0.072,3.086,0.175,4.612c0.619,0.11,1.172,0.393,1.621,0.797
			c6.611-4.09,13.957-7.096,21.793-8.772c-1.414-4.768-2.323-9.749-2.673-14.883c-2.371-0.542-4.827-0.86-7.345-0.931
			C47.815,16.062,43.393,19.816,38.227,23.051z"/>
		<path fill="none" stroke="#FFFFFF" stroke-width="2.3876" stroke-miterlimit="10" d="M45.862,86.917
			c0.995-4.888,2.421-9.622,4.232-14.161c-4.399-5.806-7.891-12.329-10.294-19.355c-4.639-1.445-9.496-2.381-14.5-2.79
			c-3.701,4.174-6.888,8.809-9.475,13.806C21.019,76.482,32.336,85.281,45.862,86.917z"/>
		<path fill="none" stroke="#FFFFFF" stroke-width="2.3876" stroke-miterlimit="10" d="M57.333,61.816
			c-2.033,3.408-3.825,6.975-5.353,10.677c3.516,4.511,7.587,8.565,12.117,12.058c3.792-1.504,7.282-3.602,10.353-6.186
			C69.764,71.896,63.97,66.279,57.333,61.816z"/>
		<path fill="none" stroke="#FFFFFF" stroke-width="2.3876" stroke-miterlimit="10" d="M75.798,26.187
			c1.362,0,2.713,0.05,4.056,0.129c-4.887-6.226-11.689-10.87-19.523-13.049c0.371,4.874,1.254,9.605,2.61,14.138
			C67.11,26.617,71.404,26.187,75.798,26.187z"/>
		<path fill="none" stroke="#FFFFFF" stroke-width="2.3876" stroke-miterlimit="10" d="M63.437,28.988
			c1.647,5.048,3.864,9.839,6.592,14.288c4.211-4.023,8.843-7.606,13.82-10.685c-0.796-1.575-1.697-3.087-2.698-4.526
			c-1.768-0.139-3.549-0.232-5.352-0.232C71.575,27.834,67.448,28.242,63.437,28.988z"/>
		<path fill="none" stroke="#FFFFFF" stroke-width="2.3876" stroke-miterlimit="10" d="M35.217,41.435
			c-3.048,2.3-5.885,4.861-8.501,7.634c4.278,0.429,8.435,1.265,12.45,2.44c-0.936-3.022-1.661-6.135-2.177-9.317
			C36.316,42.121,35.707,41.851,35.217,41.435z"/>
		<path fill="none" stroke="#FFFFFF" stroke-width="2.3876" stroke-miterlimit="10" d="M86.03,61.211
			c1.197-3.675,1.852-7.594,1.852-11.668c0-5.51-1.193-10.739-3.32-15.456c-4.912,3.054-9.479,6.611-13.626,10.604
			C75.024,51,80.132,56.583,86.03,61.211z"/>
		<path fill="none" stroke="#FFFFFF" stroke-width="2.3876" stroke-miterlimit="10" d="M55.947,60.926
			c-4.409-2.811-9.161-5.124-14.183-6.86c2.213,6.094,5.285,11.778,9.062,16.914C52.309,67.501,54.024,64.145,55.947,60.926z"/>
		<path fill="none" stroke="#FFFFFF" stroke-width="2.3876" stroke-miterlimit="10" d="M69.736,45.866
			c-4.374,4.385-8.25,9.266-11.545,14.545c6.78,4.549,12.705,10.271,17.503,16.865c4.292-3.944,7.662-8.871,9.761-14.424
			C79.315,58.113,73.994,52.37,69.736,45.866z"/>
		<path fill="none" stroke="#FFFFFF" stroke-width="2.3876" stroke-miterlimit="10" d="M51.276,74.259
			c-1.59,4.124-2.859,8.407-3.767,12.82c0.931,0.072,1.868,0.119,2.817,0.121c4.183-0.011,8.201-0.712,11.957-1.982
			C58.218,81.986,54.524,78.31,51.276,74.259z"/>
		<path fill="none" stroke="#FFFFFF" stroke-width="2.3876" stroke-miterlimit="10" d="M19.766,50.366
			c-2.352,0-4.676,0.123-6.967,0.359c0.126,4.084,0.893,8.006,2.22,11.663c2.325-4.272,5.101-8.262,8.24-11.931
			C22.102,50.397,20.937,50.366,19.766,50.366z"/>
		<path fill="none" stroke="#FFFFFF" stroke-width="2.3876" stroke-miterlimit="10" d="M18.156,30.127
			c6.847-1.995,13.101-4.714,18.531-8.017c0.363-2.787,0.874-5.528,1.56-8.202C29.795,16.798,22.695,22.6,18.156,30.127z"/>
		<path fill="none" stroke="#FFFFFF" stroke-width="2.3876" stroke-miterlimit="10" d="M38.491,20.978
			c4.121-2.697,7.708-5.745,10.67-9.063c-3.125,0.104-6.152,0.588-9.04,1.408C39.438,15.823,38.884,18.373,38.491,20.978z"/>
	</g>
	<g>
		<g>
			<path fill="none" stroke="#FFFFFF" stroke-width="2.3876" stroke-miterlimit="10" d="M37.334,42.227
				c-0.118,0-0.23-0.023-0.345-0.035c0.516,3.182,1.241,6.295,2.177,9.317c0.648,0.19,1.293,0.385,1.933,0.593
				c-1.077-3.278-1.913-6.662-2.478-10.138C38.225,42.133,37.79,42.227,37.334,42.227z"/>
			<path fill="none" stroke="#FFFFFF" stroke-width="2.3876" stroke-miterlimit="10" d="M50.826,70.98
				c-3.776-5.136-6.848-10.82-9.062-16.914c-0.653-0.226-1.302-0.459-1.963-0.665c2.403,7.026,5.895,13.548,10.294,19.355
				C50.332,72.161,50.575,71.569,50.826,70.98z"/>
			<path fill="none" stroke="#FFFFFF" stroke-width="2.3876" stroke-miterlimit="10" d="M36.266,35.834
				c0.337-0.116,0.692-0.193,1.068-0.193c0.196,0,0.386,0.025,0.573,0.058c-0.104-1.526-0.175-3.06-0.175-4.612
				c0-2.721,0.181-5.399,0.495-8.037c-0.588,0.368-1.185,0.728-1.792,1.083c-0.229,2.288-0.35,4.607-0.35,6.954
				C36.085,32.685,36.159,34.264,36.266,35.834z"/>
			<path fill="none" stroke="#FFFFFF" stroke-width="2.3876" stroke-miterlimit="10" d="M36.687,22.111
				c0.61-0.371,1.214-0.747,1.804-1.133c0.393-2.605,0.947-5.156,1.63-7.655c0.006-0.021,0.012-0.042,0.018-0.064
				c-0.632,0.175-1.256,0.367-1.874,0.574c-0.006,0.025-0.011,0.051-0.017,0.076C37.561,16.583,37.05,19.324,36.687,22.111z"/>
			<path fill="none" stroke="#FFFFFF" stroke-width="2.3876" stroke-miterlimit="10" d="M51.981,72.493
				c-0.241,0.585-0.476,1.174-0.705,1.765c3.248,4.051,6.942,7.727,11.007,10.959c0.612-0.207,1.217-0.429,1.815-0.666
				C59.568,81.059,55.497,77.005,51.981,72.493z"/>
			<path fill="none" stroke="#FFFFFF" stroke-width="2.3876" stroke-miterlimit="10" d="M70.936,44.69
				c-0.404,0.388-0.805,0.779-1.2,1.176c4.258,6.504,9.579,12.247,15.719,16.985c0.204-0.541,0.395-1.088,0.575-1.64
				C80.132,56.583,75.024,51,70.936,44.69z"/>
			<path fill="none" stroke="#FFFFFF" stroke-width="2.3876" stroke-miterlimit="10" d="M62.941,27.405
				c-1.356-4.533-2.239-9.264-2.61-14.138c-0.556-0.155-1.117-0.296-1.683-0.425c0.35,5.134,1.259,10.114,2.673,14.883
				C61.858,27.609,62.399,27.507,62.941,27.405z"/>
			<path fill="none" stroke="#FFFFFF" stroke-width="2.3876" stroke-miterlimit="10" d="M70.029,43.276
				c-2.728-4.449-4.945-9.241-6.592-14.288c-0.545,0.101-1.091,0.199-1.632,0.313c1.732,5.364,4.101,10.443,7.021,15.149
				C69.224,44.055,69.624,43.663,70.029,43.276z"/>
			<path fill="none" stroke="#FFFFFF" stroke-width="2.3876" stroke-miterlimit="10" d="M36.435,24.134
				c0.607-0.354,1.204-0.715,1.792-1.083c5.166-3.235,9.588-6.989,13.076-11.14c-0.36-0.01-0.718-0.027-1.08-0.027
				c-0.355,0-0.705,0.017-1.057,0.027c-0.002,0.002-0.003,0.004-0.005,0.005c-2.962,3.318-6.549,6.366-10.67,9.063
				c-0.589,0.386-1.193,0.762-1.804,1.133c-5.43,3.302-11.684,6.021-18.531,8.017c-0.083,0.024-0.165,0.05-0.248,0.074
				c-0.392,0.654-0.761,1.324-1.114,2.004c0.079-0.021,0.159-0.041,0.238-0.063C24.174,30.195,30.717,27.473,36.435,24.134z"/>
			<path fill="none" stroke="#FFFFFF" stroke-width="2.3876" stroke-miterlimit="10" d="M62.941,27.405
				c-0.542,0.102-1.083,0.205-1.62,0.319c-7.836,1.676-15.182,4.682-21.793,8.772c0.411,0.37,0.723,0.839,0.907,1.373
				c6.482-4.004,13.686-6.941,21.371-8.568c0.54-0.114,1.087-0.212,1.632-0.313c4.01-0.746,8.138-1.154,12.361-1.154
				c1.803,0,3.584,0.092,5.352,0.232c-0.415-0.597-0.848-1.179-1.296-1.75c-1.343-0.078-2.694-0.129-4.056-0.129
				C71.404,26.187,67.11,26.617,62.941,27.405z"/>
			<path fill="none" stroke="#FFFFFF" stroke-width="2.3876" stroke-miterlimit="10" d="M35.217,41.435
				c-0.423-0.359-0.755-0.815-0.954-1.342c-3.491,2.632-6.728,5.583-9.662,8.815c0.706,0.049,1.415,0.091,2.115,0.161
				C29.331,46.296,32.169,43.735,35.217,41.435z"/>
			<path fill="none" stroke="#FFFFFF" stroke-width="2.3876" stroke-miterlimit="10" d="M25.301,50.612
				c-0.68-0.055-1.357-0.121-2.042-0.156c-3.139,3.67-5.915,7.659-8.24,11.931c-0.042,0.076-0.079,0.156-0.12,0.232
				c0.252,0.681,0.528,1.35,0.818,2.011c0.036-0.071,0.073-0.142,0.109-0.213C18.413,59.421,21.6,54.786,25.301,50.612z"/>
			<path fill="none" stroke="#FFFFFF" stroke-width="2.3876" stroke-miterlimit="10" d="M19.766,50.366
				c1.172,0,2.336,0.031,3.493,0.09c0.685,0.035,1.362,0.1,2.042,0.156c5.004,0.409,9.861,1.345,14.5,2.79
				c0.662,0.206,1.311,0.439,1.963,0.665c5.022,1.737,9.774,4.049,14.183,6.86c0.282-0.471,0.568-0.939,0.859-1.404
				c-4.86-3.097-10.127-5.605-15.707-7.42c-0.64-0.208-1.285-0.404-1.933-0.593c-4.014-1.176-8.172-2.011-12.45-2.44
				c-0.701-0.07-1.409-0.112-2.115-0.161c-1.599-0.111-3.208-0.188-4.835-0.188c-2.358,0-4.687,0.12-6.985,0.352
				c-0.069,0.007-0.137,0.015-0.206,0.022c-0.002,0.15-0.011,0.298-0.011,0.449c0,0.405,0.018,0.806,0.031,1.208
				c0.069-0.007,0.136-0.019,0.205-0.026C15.09,50.489,17.414,50.366,19.766,50.366z"/>
			<path fill="none" stroke="#FFFFFF" stroke-width="2.3876" stroke-miterlimit="10" d="M58.191,60.411
				c-0.29,0.465-0.577,0.933-0.858,1.405c6.637,4.463,12.431,10.08,17.117,16.55c0.422-0.355,0.838-0.717,1.244-1.09
				C70.896,70.682,64.971,64.961,58.191,60.411z"/>
			<path fill="none" stroke="#FFFFFF" stroke-width="2.3876" stroke-miterlimit="10" d="M68.827,44.45
				c-4.561,4.534-8.598,9.592-12.021,15.072c-0.29,0.465-0.577,0.933-0.859,1.404c-1.923,3.219-3.638,6.575-5.121,10.054
				c-0.251,0.588-0.494,1.181-0.732,1.776c-1.812,4.539-3.237,9.273-4.232,14.161c-0.002,0.008-0.003,0.017-0.005,0.026
				c0.546,0.063,1.096,0.112,1.648,0.152c0.001-0.005,0.002-0.01,0.003-0.015c0.908-4.413,2.177-8.695,3.767-12.82
				c0.228-0.592,0.463-1.18,0.705-1.765c1.528-3.703,3.32-7.27,5.353-10.677c0.281-0.471,0.567-0.939,0.858-1.405
				c3.295-5.279,7.171-10.16,11.545-14.545c0.396-0.397,0.797-0.787,1.2-1.176c4.147-3.992,8.714-7.55,13.626-10.604
				c-0.227-0.504-0.465-1.003-0.713-1.495c-4.976,3.079-9.609,6.662-13.82,10.685C69.624,43.663,69.224,44.055,68.827,44.45z"/>
		</g>
		<path fill="#FFFFFF" d="M37.118,36.219h0.438c1.413,0,2.569,1.156,2.569,2.569v0.134c0,1.413-1.156,2.569-2.569,2.569h-0.438
			c-1.413,0-2.569-1.156-2.569-2.569v-0.134C34.549,37.375,35.705,36.219,37.118,36.219z"/>
	</g>
</g>
</svg>
