<?xml version="1.0" encoding="utf-8"?>
<svg version="1.1" id="advanced_tools" xmlns="http://www.w3.org/2000/svg" xmlns:xlink="http://www.w3.org/1999/xlink" x="0px" y="0px" viewBox="0 0 44 44.4" style="enable-background:new 0 0 44 44.4;" xml:space="preserve">
  <path style="fill: #FFFFFF;" d="M34.4,30.4V16.6c0-0.8-0.5-1.4-1.3-1.4h-5.9c-0.2,0-0.3-0.2-0.3-0.4v-0.9c0-1-1-1.8-2-1.8h-5.6
	c-1,0-1.7,0.8-1.7,1.8v0.9c0,0.2-0.3,0.4-0.5,0.4h-5.6c-1,0-1.8,0.8-1.8,1.8v13.5c0,1,0.7,1.9,1.7,1.9h21.3
	C33.7,32.3,34.4,31.4,34.4,30.4z M18.9,13.8c0-0.2,0.2-0.4,0.4-0.4H25c0.2,0,0.4,0.2,0.4,0.4v0.9c0,0.2-0.2,0.4-0.4,0.4h-5.7
	c-0.2,0-0.4-0.2-0.4-0.4V13.8z M32.7,30.9H11.4c-0.2,0-0.4-0.3-0.4-0.5v-8.8c0-0.2,0.1-0.3,0.4-0.3h3.4v0.2c0,0.3,0.2,0.5,0.5,0.5
	h0.2c0.3,0,0.6-0.2,0.6-0.5v-0.2h12v0.2c0,0.3,0.1,0.5,0.4,0.5h0.2c0.3,0,0.7-0.2,0.7-0.5v-0.2h3.1c0.2,0,0.3,0.1,0.3,0.3v8.8H33
	C33,30.6,32.9,30.9,32.7,30.9z M33.1,19.5L33.1,19.5C33,19.8,32.8,20,32.6,20h-3v-0.3c0-0.3-0.3-0.4-0.7-0.4h-0.2
	c-0.3,0-0.4,0.1-0.4,0.4V20h-12v-0.3c0-0.3-0.3-0.4-0.6-0.4h-0.2c-0.3,0-0.5,0.1-0.5,0.4V20h-3.4c-0.2,0-0.4-0.2-0.4-0.4v-2.6
	c0-0.2,0.2-0.4,0.4-0.4h21.2c0.2,0,0.4,0.2,0.4,0.4V19.5z"/>
</svg>
