<?xml version="1.0" encoding="utf-8"?>
<svg version="1.1" id="copy_world" xmlns="http://www.w3.org/2000/svg" xmlns:xlink="http://www.w3.org/1999/xlink" x="0px" y="0px" viewBox="0 0 30.6 30.9" style="enable-background:new 0 0 30.6 30.9;" xml:space="preserve">
  <path style="fill: #FFFFFF;" d="M19,24.7H7.6c-0.9,0-1.6-0.7-1.6-1.6V11.6C6,10.8,6.7,10,7.6,10h2.9v1.4H7.6c-0.1,0-0.2,0.1-0.2,0.2v11.4c0,0.1,0.1,0.2,0.2,0.2H19c0.1,0,0.2-0.1,0.2-0.2v-2.6h1.4v2.6C20.6,23.9,19.9,24.7,19,24.7z"/>
  <path style="fill: #FFFFFF;" d="M23,20.9H11.6c-0.9,0-1.6-0.7-1.6-1.6V7.8c0-0.9,0.7-1.6,1.6-1.6H23c0.9,0,1.6,0.7,1.6,1.6v11.4C24.6,20.1,23.9,20.9,23,20.9zM11.6,7.6c-0.1,0-0.2,0.1-0.2,0.2v11.4c0,0.1,0.1,0.2,0.2,0.2H23c0.1,0,0.2-0.1,0.2-0.2V7.8c0-0.1-0.1-0.2-0.2-0.2H11.6z"/>
</svg>
