<?xml version="1.0" encoding="utf-8"?>
<svg version="1.1" id="delete_world" xmlns="http://www.w3.org/2000/svg" xmlns:xlink="http://www.w3.org/1999/xlink" x="0px" y="0px" viewBox="0 0 30.6 30.9" style="enable-background:new 0 0 30.6 30.9;" xml:space="preserve">
  <path style="fill: #FFFFFF;" d="M14.7,6.2c-5.1,0-9.2,4.1-9.2,9.2s4.1,9.2,9.2,9.2s9.2-4.1,9.2-9.2S19.8,6.2,14.7,6.2z M14.7,23.1c-4.3,0-7.7-3.5-7.7-7.7s3.5-7.7,7.7-7.7s7.7,3.5,7.7,7.7S19,23.1,14.7,23.1z"/>
  <path style="fill: #FFFFFF;" d="M16.7,12.5c-0.7,0.7-1.3,1.3-2,2c-0.7-0.7-1.3-1.3-2-2c-0.6-0.6-1.5,0.3-0.9,0.9c0.7,0.7,1.3,1.3,2,2c-0.7,0.7-1.3,1.3-2,2c-0.6,0.6,0.3,1.5,0.9,0.9c0.7-0.7,1.3-1.3,2-2c0.7,0.7,1.3,1.3,2,2c0.6,0.6,1.5-0.3,0.9-0.9c-0.7-0.7-1.3-1.3-2-2c0.7-0.7,1.3-1.3,2-2C18.3,12.8,17.3,11.9,16.7,12.5z"/>
</svg>
