<?xml version="1.0" encoding="utf-8"?>
<svg version="1.1" id="download_world" xmlns="http://www.w3.org/2000/svg" xmlns:xlink="http://www.w3.org/1999/xlink" x="0px" y="0px" viewBox="0 0 30.6 30.9" style="enable-background:new 0 0 30.6 30.9;" xml:space="preserve">
  <path style="fill: #FFFFFF;" d="M15.3,25.2c-0.4,0-0.8-0.2-1-0.5L8.4,18c-0.3-0.4-0.4-1-0.2-1.4s0.7-0.8,1.2-0.8h2.2V7.3c0-0.9,0.7-1.6,1.6-1.6h4.3c0.9,0,1.6,0.7,1.6,1.6l0,8.5h2.2c0.5,0,1,0.3,1.2,0.8s0.1,1-0.2,1.4l-5.9,6.7C16.1,25,15.7,25.2,15.3,25.2z M9.4,17.1l5.9,6.8c0,0,0,0,0,0l5.9-6.8l-3.5,0l0-9.8c0-0.1-0.1-0.3-0.3-0.3h-4.3c-0.1,0-0.3,0.1-0.3,0.3v9.8H9.4z"/>
</svg>
