<?xml version="1.0" encoding="utf-8"?>
<svg version="1.1" id="help" xmlns="http://www.w3.org/2000/svg" xmlns:xlink="http://www.w3.org/1999/xlink" x="0px" y="0px" viewBox="0 0 44 44.4" style="enable-background:new 0 0 44 44.4;" xml:space="preserve">
  <path style="fill: #FFFFFF;" d="M21.9,26.9c-0.4,0-0.8,0.3-0.8,0.8s0.3,0.8,0.8,0.8c0.4,0,0.8-0.3,0.8-0.8C22.7,27.3,22.4,26.9,21.9,26.9zM22,11.5c-5.9-0.1-10.5,4.9-10.7,10.7c-0.1,5.9,4.9,10.5,10.7,10.7C27.9,33,32.6,28,32.7,22.2C32.5,16.3,27.9,11.7,22,11.5zM22,31.7c-5.3,0.1-9.3-4.4-9.5-9.5c-0.1-5.3,4.4-9.3,9.5-9.5c5.3-0.1,9.3,4.4,9.5,9.5C31.4,27.4,27.2,31.5,22,31.7zM22.9,15.8c-0.9-0.2-1.9,0-2.6,0.4c-1.8,0.9-1.9,2.8-1.9,2.9c0,0.5,0.1,0.8,0.7,0.9c0.4,0.1,0.7-0.4,0.7-0.8c0-0.2,0.2-1,1-1.5c0.9-0.5,2.3-0.7,3.1,0.6c0.3,0.6,0.4,1.5-0.6,2.4c-1.5,1.3-2.1,2.3-2.1,3.2v1c0,0.4,0.1,0.8,0.5,0.8c0.4,0,0.5-0.4,0.5-0.8v-0.8c0-0.1,0.1-0.8,1.7-2.1c1.8-1.5,1.9-3.3,1.4-4.5C24.9,16.6,24,16.1,22.9,15.8z"/>
</svg>
