<?xml version="1.0" encoding="utf-8"?>
<!DOCTYPE svg PUBLIC "-//W3C//DTD SVG 1.1//EN" "http://www.w3.org/Graphics/SVG/1.1/DTD/svg11.dtd">
<svg version="1.1" id="burger_icon" xmlns="http://www.w3.org/2000/svg" xmlns:xlink="http://www.w3.org/1999/xlink" x="0px" y="0px" viewBox="0 0 55.5 55.1" enable-background="new 0 0 55.5 55.1" xml:space="preserve">
  <path fill="#FFFFFF" d="M3.9,13.9c15.8,0,31.5,0,47.3,0c2.9,0,2.9-4.5,0-4.5c-15.8,0-31.5,0-47.3,0C1,9.4,1,13.9,3.9,13.9L3.9,13.9z"/>
  <path fill="#FFFFFF" d="M3.9,29.8c15.8,0,31.5,0,47.3,0c2.9,0,2.9-4.5,0-4.5c-15.8,0-31.5,0-47.3,0C1,25.3,1,29.8,3.9,29.8L3.9,29.8z"/>
  <path fill="#FFFFFF" d="M3.9,45.7c15.8,0,31.5,0,47.3,0c2.9,0,2.9-4.5,0-4.5c-15.8,0-31.5,0-47.3,0C1,41.2,1,45.7,3.9,45.7L3.9,45.7z"/>
</svg>
