<?xml version="1.0" encoding="utf-8"?>
<svg version="1.1" id="Layer_1" xmlns="http://www.w3.org/2000/svg" xmlns:xlink="http://www.w3.org/1999/xlink" x="0px" y="0px" viewBox="0 0 44 44.4" style="enable-background:new 0 0 44 44.4;" xml:space="preserve">
  <path style="fill: #FFFFFF;" d="M29.4,33.1L29.4,33.1c-0.8,0-1.6-0.3-2.2-0.8C26.7,31.9,18,23.1,17,22.1c-0.1,0-0.3,0-0.4,0c-1.5,0-2.7-0.5-3.8-1.6c-0.8-0.8-1.4-1.8-1.5-3c-0.1-0.5-0.1-1,0-1.6c0.1-0.6,0.6-0.9,1.1-0.9c0.2,0,0.4,0,0.5,0.1c0.3,0.1,0.5,0.3,0.6,0.5l0.6,0.6c0.4,0.4,0.7,0.7,1.1,1.1c0.1,0.1,0.1,0.1,0.2,0.1c0,0,0.1,0,0.1,0c0.2,0,0.3-0.1,0.4-0.2c0,0,0.1-0.1,0.1-0.1c0,0,0.1-0.1,0.1-0.1c0.1-0.2,0.3-0.3,0.4-0.4c0.2-0.2,0.4-0.4,0.5-0.5c0,0,0-0.1,0-0.1c0-0.1,0-0.3-0.1-0.5c0-0.1-0.3-0.3-0.6-0.6c-0.5-0.5-1.1-1.1-1.4-1.4c-0.4-0.4-0.5-0.9-0.4-1.4l0-0.1c0.2-0.5,0.6-0.8,1.3-0.9c0.5-0.1,1.1,0,1.6,0.1c1.5,0.3,2.6,1.1,3.5,2.3c0.4,0.6,0.7,1.4,0.9,2.2c0.1,0.4,0.1,0.9,0,1.3c1.3,1.4,9.3,9.4,9.8,9.9c1.1,1.1,1.4,2.9,0.6,4.2C31.8,32.5,30.6,33.1,29.4,33.1zM17.1,20.9c0.3,0,0.5,0.1,0.7,0.3C19,22.4,27.6,31,28,31.4c0.4,0.3,0.9,0.5,1.4,0.5c0.8,0,1.5-0.4,1.9-1.1c0.5-0.9,0.4-2-0.4-2.7c-0.1-0.1-2.7-2.7-5.1-5.1c-5-5.1-5-5.1-5.1-5.3l0-0.1l0-0.3c0.1-0.4,0-0.7,0-1.1c-0.1-0.7-0.3-1.2-0.7-1.7c-0.7-1-1.5-1.6-2.7-1.8c-0.4-0.1-0.8-0.1-1.2-0.1c-0.2,0-0.2,0-0.2,0.1c0,0,0,0.1,0.1,0.2c0.3,0.3,0.9,0.9,1.3,1.3c0.4,0.4,0.6,0.5,0.6,0.6c0.4,0.5,0.6,1,0.4,1.6c0,0.1-0.1,0.3-0.2,0.3l0,0.1c-0.2,0.3-0.4,0.5-0.7,0.7c-0.1,0.1-0.2,0.2-0.4,0.4C17.1,18,17,18,17,18.1c0,0-0.1,0.1-0.1,0.1c-0.4,0.4-1,0.6-1.6,0.6c-0.4-0.1-0.7-0.3-0.9-0.5c-0.4-0.4-0.7-0.7-1.1-1.1l-0.6-0.6c-0.1-0.1-0.2-0.2-0.3-0.2c-0.1,0.3,0,0.7,0,1.1c0.1,0.9,0.5,1.7,1.2,2.3c0.9,0.9,2,1.3,3.3,1.2C17,20.9,17.1,20.9,17.1,20.9z M29.2,30.8c-0.6,0-1.1-0.5-1.1-1.1s0.5-1.1,1.1-1.1c0.6,0,1.1,0.5,1.1,1.1S29.9,30.8,29.2,30.8z"/>
</svg>
