<?xml version="1.0" encoding="utf-8"?>
<svg version="1.1" id="Layer_1" xmlns="http://www.w3.org/2000/svg" xmlns:xlink="http://www.w3.org/1999/xlink" x="0px" y="0px" viewBox="0 0 44 44.4" style="enable-background:new 0 0 44 44.4;" xml:space="preserve">
  <path style="fill: #FFFFFF;" d="M37.7,19.4c-1.5-0.8-3-1.5-4.5-2.3c-0.2-0.1-0.4-0.2-0.6-0.2c0,0-0.1-0.1-0.1-0.1c-3.3-1.8-6.5-3.5-9.8-5.3c-0.1-0.1-0.1-0.1-0.2-0.2l-4.4-2.5c-1.1-0.7-1.5-0.3-2.6,0.3c-3,1.7-6,3.4-9.1,5c-0.5,0.3-0.5,1.1,0,1.3c1.5,0.8,3.3,1.6,4.6,2.4v9.5c0,0.5-0.2,1.5,0.1,2c0.3,0.4,1,0.8,1.4,1c1.2,0.7,2.4,1.5,3.6,2.2c1.8,1.1,3.6,2.2,5.4,3.3c0.1,0.1,0.2,0.1,0.4,0.1h0.1c0.1,0,0.2,0,0.4-0.1c3-1.8,6-3.6,9-5.5c0.9-0.6,1.6-0.8,1.6-2v-5c1.4-0.9,3.2-1.8,4.8-2.6C38.2,20.4,38.2,19.6,37.7,19.4zM11.8,16.6c-1.2-0.6-2.3-1.2-3.5-1.8c2.9-1.6,5.7-3.2,8.6-4.8c1.1,0.7,2.3,1.3,3.4,2C17.6,13.5,14.7,15,11.8,16.6zM21.3,33.8c-3.1-1.8-5.8-3.5-8.6-5.3v-9.8c1,0.7,2.6,1.4,4,2.2c0.4,0.2,0.8,0.4,1.2,0.7c0.8,0.4,1.7,0.9,2.5,1.3c0.2,0.1,0.5,0.3,0.9,0.5V33.8zM21.9,22.1c-1.1-0.6-2.2-1.2-3.3-1.8l-5.2-2.8l8.5-4.6c2.8,1.5,5.6,3,8.4,4.5C27.6,19,24.8,20.5,21.9,22.1zM31.3,28.5c-2.7,1.8-5.8,3.5-8.6,5.3v-9.6c1,0.6,2.3,1.2,3.4,1.8c1,0.5,1.5,0.2,2.5-0.4c0.9-0.5,1.7-1,2.7-1.5V28.5zM27,24.8c-1.1-0.6-2.2-1.2-3.3-1.8c2.9-1.5,5.7-3.1,8.5-4.6c1.1,0.6,2.3,1.1,3.4,1.7C32.7,21.6,29.8,23.2,27,24.8zM19,26.8c-0.5-0.3-1.1-0.5-1.4-0.8v-1.8c0-0.7-1.4-0.7-1.4,0v1c-0.3-0.1-0.5-0.3-0.8-0.4c-0.8-0.4-1.4,0.7-0.7,1.2c0.5,0.3,1.1,0.5,1.4,0.8v1.6c0,1,1.4,1,1.4,0v-0.8c0.3,0.1,0.5,0.3,0.8,0.4C19.1,28.3,19.7,27.2,19,26.8z"/>
</svg>
