<?xml version="1.0" encoding="utf-8"?>
<svg version="1.1" id="Layer_1" xmlns="http://www.w3.org/2000/svg" xmlns:xlink="http://www.w3.org/1999/xlink" x="0px" y="0px" viewBox="0 0 30.6 30.9" style="enable-background:new 0 0 30.6 30.9;" xml:space="preserve">
  <path style="fill: #FFFFFF;" d="M14.9,6.2c-5.1,0-9.2,4.1-9.2,9.2s4.1,9.2,9.2,9.2s9.2-4.1,9.2-9.2S20,6.2,14.9,6.2zM14.9,23.2c-4.3,0-7.7-3.5-7.7-7.7s3.5-7.7,7.7-7.7s7.7,3.5,7.7,7.7S19.2,23.2,14.9,23.2z"/>
  <path style="fill: #FFFFFF;" d="M17.2,12.8L14.1,16c-0.1,0.1-0.2,0.1-0.3,0l-1.2-1.2c-0.3-0.4-0.9-0.4-1.3,0c-0.3,0.4-0.3,0.9,0,1.3l2,2c0.3,0.3,0.9,0.3,1.3,0l4-4c0.2-0.2,0.3-0.4,0.3-0.6c0-0.2-0.1-0.5-0.3-0.6C18.2,12.5,17.6,12.5,17.2,12.8z"/>
</svg>
