<?xml version="1.0" encoding="utf-8"?>
<svg version="1.1" id="Layer_1" xmlns="http://www.w3.org/2000/svg" xmlns:xlink="http://www.w3.org/1999/xlink" x="0px" y="0px" viewBox="0 0 30.6 30.9" style="enable-background:new 0 0 30.6 30.9;" xml:space="preserve">
<g>
  <path style="fill: #FFFFFF;" d="M22.3,5.9H8.4c-1.1,0-2.1,0.9-2.1,2.1v15c0,1.1,0.9,2.1,2.1,2.1h13.9c1.1,0,2.1-0.9,2.1-2.1v-15C24.3,6.8,23.4,5.9,22.3,5.9L22.3,5.9zM19.2,6.9v6.6h-7.9V6.9H19.2zM12.9,24v-5h4.8v5H12.9zM23.3,23c0,0.6-0.5,1-1,1h-3.5v-5.6c0-0.3-0.2-0.5-0.5-0.5h-5.8c-0.3,0-0.5,0.2-0.5,0.5V24H8.4c-0.6,0-1-0.5-1-1v-15c0-0.6,0.5-1,1-1h2V14c0,0.3,0.2,0.5,0.5,0.5h8.9c0.3,0,0.5-0.2,0.5-0.5V6.9h2c0.6,0,1,0.5,1,1V23z M23.3,23"/>
  <path style="fill: #FFFFFF;" d="M22.3,25.1H8.4c-1.2,0-2.1-1-2.1-2.1v-15c0-1.2,1-2.1,2.1-2.1h13.9c1.2,0,2.1,1,2.1,2.1v15C24.4,24.2,23.4,25.1,22.3,25.1zM8.4,5.9c-1.1,0-2,0.9-2,2v15c0,1.1,0.9,2,2,2h13.9c1.1,0,2-0.9,2-2v-15c0-1.1-0.9-2-2-2H8.4zM22.3,24.1h-3.6v-5.6c0-0.3-0.2-0.5-0.5-0.5h-5.8c-0.3,0-0.5,0.2-0.5,0.5v5.6H8.4c-0.6,0-1.1-0.5-1.1-1.1v-15c0-0.6,0.5-1.1,1.1-1.1h2V14c0,0.3,0.2,0.5,0.5,0.5h8.9c0.3,0,0.5-0.2,0.5-0.5V6.8h2c0.6,0,1.1,0.5,1.1,1.1v15C23.4,23.6,22.9,24.1,22.3,24.1zM18.8,24h3.5c0.5,0,1-0.4,1-1v-15c0-0.5-0.4-1-1-1h-1.9v7c0,0.3-0.3,0.6-0.6,0.6h-8.9c-0.3,0-0.6-0.3-0.6-0.6V7H8.4c-0.5,0-1,0.4-1,1v15c0,0.5,0.4,1,1,1h3.5v-5.5c0-0.3,0.3-0.6,0.6-0.6h5.8c0.3,0,0.6,0.3,0.6,0.6V24z M17.8,24.1h-4.9v-5.2h4.9V24.1z M13,24h4.7V19H13V24z M19.3,13.5h-8V6.8h8V13.5z M11.4,13.4h7.8V7h-7.8V13.4z"/>
  <path style="fill: #FFFFFF;" d="M12.5,12.5h5.5c0.3,0,0.5-0.2,0.5-0.5c0-0.3-0.2-0.5-0.5-0.5h-5.5c-0.3,0-0.5,0.2-0.5,0.5C12,12.3,12.3,12.5,12.5,12.5L12.5,12.5z M12.5,12.5"/>
  <path style="fill: #FFFFFF;" d="M12.5,10.7h5.5c0.3,0,0.5-0.2,0.5-0.5c0-0.3-0.2-0.5-0.5-0.5h-5.5c-0.3,0-0.5,0.2-0.5,0.5C12,10.5,12.3,10.7,12.5,10.7L12.5,10.7z M12.5,10.7"/>
  <path style="fill: #FFFFFF;" d="M12.5,8.9h5.5c0.3,0,0.5-0.2,0.5-0.5c0-0.3-0.2-0.5-0.5-0.5h-5.5c-0.3,0-0.5,0.2-0.5,0.5C12,8.6,12.3,8.9,12.5,8.9L12.5,8.9zM12.5,8.9"/>
  <path style="fill: #FFFFFF;" d="M16.7,19.5c-0.3,0-0.5,0.2-0.5,0.5v1.5c0,0.3,0.2,0.5,0.5,0.5c0.3,0,0.5-0.2,0.5-0.5V20C17.2,19.7,17,19.5,16.7,19.5L16.7,19.5zM16.7,19.5"/>
</g>
</svg>
