<?xml version="1.0" encoding="utf-8"?>
<svg version="1.1" id="Layer_1" xmlns="http://www.w3.org/2000/svg" xmlns:xlink="http://www.w3.org/1999/xlink" x="0px" y="0px" viewBox="0 0 44 44.4" style="enable-background:new 0 0 44 44.4;" xml:space="preserve">
  <path style="fill: #FFFFFF;" d="M12.7,30.9c0,0.2,0.1,0.4,0.2,0.5c0.1,0.1,0.3,0.2,0.4,0.2c0.2,0,0.5-0.1,0.7-0.2l5.5-5.6l0.3,0.2c1,0.7,2.1,1,3.2,1.2c0.3,0,0.6,0,0.9,0h0c2,0,3.8-0.7,5.2-2.1s2.1-3.2,2.1-5.2c0-3.7-2.8-6.7-6.5-7.1c-0.3,0-0.6,0-0.9,0h0c-2,0-3.8,0.7-5.2,2.1c-1.4,1.4-2.1,3.2-2.1,5.2c0,1.6,0.5,3.1,1.5,4.3l0.3,0.3l-5.5,5.6C12.8,30.5,12.7,30.7,12.7,30.9zM18.2,20.1c0-1.5,0.6-3,1.7-4.1c1.1-1.1,2.5-1.8,4.1-1.8h0c0.2,0,0.4,0,0.7,0.1c2.9,0.3,5.1,2.8,5.1,5.7c0,1.5-0.6,3.1-1.7,4.2c-1.1,1.1-2.5,1.8-4.1,1.8h0c-0.2,0-0.4,0-0.7-0.1C20.4,25.5,18.2,23,18.2,20.1z"/>
</svg>
