<?xml version="1.0" encoding="utf-8"?>
<!-- Generator: Adobe Illustrator 19.1.0, SVG Export Plug-In . SVG Version: 6.00 Build 0)  -->
<svg version="1.1" id="Layer_1" xmlns="http://www.w3.org/2000/svg" xmlns:xlink="http://www.w3.org/1999/xlink" x="0px" y="0px" viewBox="0 0 44 44.4" style="enable-background:new 0 0 44 44.4;" xml:space="preserve">
  <path style="fill: #FFFFFF;" d="M32.1,24.5c0.6-0.3,0.9-1,1.1-1.6c0.5-1.3-0.5-2.6-1.5-3.2c-1.8-0.9-1-1.8-0.9-3.3c0-0.7-0.1-1.1-0.4-1.8c-0.6-1.3-2.2-1.4-3.4-1.1c-1.9,0.6-1.9-0.6-2.9-1.7c-0.4-0.5-0.9-0.8-1.5-1c-1.3-0.5-2.6,0.6-3.2,1.6c-1.1,2-3.3,0.5-5.1,1.3c-0.9,0.4-1.5,2-1.2,3c0.5,1.5-0.2,2.5-1.5,3.2c-0.6,0.4-0.9,1.1-1.1,1.7c-0.4,1.2,0.6,2.4,1.6,3c2.3,1.3,0.3,2.9,1.1,4.7c0.6,1.2,1.7,1.8,3,1.6c1.4-0.2,2.3-0.8,3.1,1c0.3,0.6,0.8,1.1,1.4,1.3c1.1,0.4,2.7,0.2,3.4-0.9c0.7-1.1,1.1-2.2,2.8-1.5c0.6,0.2,1.2,0.2,1.9,0.1c1.2-0.2,2.2-1.9,1.9-3.1c-0.2-0.6-0.3-1.1-0.4-1.7C30.3,25.3,31.5,24.8,32.1,24.5zM29.5,24.7c-0.7,0.9-0.6,1.9-0.2,3c0.4,1.4-0.3,2.2-1.9,1.9c-0.3-0.2-0.6-0.2-1-0.3c-0.5-0.1-0.9,0-1.4,0.1c-0.9,0.2-1.5,1.2-1.8,1.9c-1.2,2.6-2.7-0.8-3.7-1.5c-0.9-0.7-1.9-0.6-3-0.2c-2.8,0.9-1.4-2.3-1.6-3.6c-0.2-1-0.8-1.6-1.6-2.2c-0.8-0.5-2.7-1.4-0.4-2.8c0.6-0.4,1.1-0.6,1.6-1.2c0.6-0.7,0.5-1.7,0.4-2.5c-0.2-1.1-0.7-3,1.7-2.4c0.6,0.2,1.1,0.3,1.8,0.3c0.9,0,1.6-0.8,2.1-1.5c0.8-1.1,1.9-2.3,2.9-0.6c0.3,0.5,0.6,0.9,0.9,1.4c0.6,0.6,1.7,0.8,2.5,0.6c3.5-1.1,2,1.7,2.3,3.7c0.1,1,1.1,1.7,2,2.1C33.7,22.5,30.3,23.6,29.5,24.7zM22,17.7c-2.6-0.2-4.5,2.2-4.6,4.6c-0.2,2.5,2.1,4.4,4.4,4.6c0.1,0,0.1,0,0.2,0h0.2c2.5-0.2,4.3-2.1,4.4-4.6C26.7,19.7,24.4,17.8,22,17.7zM22,25.5c-4.1-0.2-4.1-6.2,0-6.4C26.1,18.8,26.1,25.3,22,25.5z"/>
</svg>
