<?xml version="1.0" encoding="utf-8"?>
<svg version="1.1" id="Layer_1" xmlns="http://www.w3.org/2000/svg" xmlns:xlink="http://www.w3.org/1999/xlink" x="0px" y="0px" viewBox="0 0 44 44.4" style="enable-background:new 0 0 44 44.4;" xml:space="preserve">
  <path style="fill: #FFFFFF;" d="M30.3,26.6c2.2-4,0.5-9.3-3.9-12.1c-2.2-1.4-4.8-1.8-7.4-1.3c-2.5,0.6-4.7,2.1-6.1,4.4S11,22.4,11.6,25c0.6,2.5,2.1,4.7,4.4,6.1c0.5,0.3,1.2,0.1,1.5-0.3c0.2-0.3,0.2-0.5,0.1-0.8l0-0.1l0-0.1c0-0.4,0-1,0.3-1.5c0.7-1.1,2.2-1.4,3.3-0.7l1.8,1.1c1.5,0.9,3.2,1,4.7,0.4l1,0.9c-1.9,1-4.3,1-6.4-0.3l-1.8-1.1c-0.5-0.3-1.2-0.1-1.5,0.4c-0.1,0.2-0.1,0.4-0.1,0.8c0.1,0.6,0,1.1-0.3,1.6c-0.7,1.1-2.2,1.4-3.2,0.7c-2.5-1.6-4.2-4-4.9-6.9c-0.7-2.9-0.1-5.8,1.4-8.3s4-4.2,6.9-4.9c2.9-0.7,5.8-0.1,8.3,1.4c5.1,3.2,7,9.5,4.2,14.1L30.3,26.6z"/>
  <path style="fill: #FFFFFF;" d="M33.4,32.6c0.1,0,0.1,0.1,0.2,0.1l0,0c0.1,0,0.2-0.1,0.3-0.2c0.1-0.1,0-0.3-0.1-0.3l-2.2-2.5c-0.7-0.8-1.5-1.7-2.2-2.5l-1.8-2.1c-0.1-0.1-0.8-0.9-0.8-0.9L26.6,24c-0.1-0.1-0.2-0.2-0.3-0.4c-0.2-0.2-0.3-0.4-0.5-0.6c-0.3-0.3-0.6-0.7-0.9-1c-0.2-0.2-0.5-0.3-0.8-0.3c-0.4,0-0.9,0.2-1,0.6c-0.1,0.3-0.2,0.6-0.1,1c0,0.1,0.4,0.5,0.7,0.8l0.3,0.3c0.4,0.3,0.8,0.7,1.2,1c0.3,0.3,0.6,0.6,0.9,0.8l0.1,0.1l5.6,4.9C32.3,31.7,32.9,32.2,33.4,32.6z"/>
  <path style="fill: #FFFFFF;" d="M21.8,18.6L21.8,18.6c-0.3-0.4-0.3-0.3-0.5-0.6l0,0c-0.4-0.3-0.8-0.5-1.1-0.6c-0.7-0.3-1.4-0.4-2-0.3c0.4,0.3,0.9,0.7,1.1,1.4c0.1,0.3,0.2,0.7,0.3,1.1c0,0.1,0,0.2,0.1,0.4l0,0.2c0.1,0.5,0.5,0.9,1.1,1c0,0,0.1,0,0.1,0c0.7,0,1.3-0.5,1.4-1.1c0.1-0.4,0-0.9-0.3-1.4C21.9,18.7,21.8,18.6,21.8,18.6z"/>
</svg>
