<?xml version="1.0" encoding="utf-8"?>
<svg version="1.1" id="Layer_1" xmlns="http://www.w3.org/2000/svg" xmlns:xlink="http://www.w3.org/1999/xlink" x="0px" y="0px" viewBox="0 0 44 44.4" style="enable-background:new 0 0 44 44.4;" xml:space="preserve">
  <path style="fill: #FFFFFF;" d="M30.1,17.2c-1.7-2.7-4.6-4.6-8.2-4.6c-3.5-0.1-6.5,1.9-8.2,4.7h-0.2c-2,0.5-10.1,2.7-6.7,6.3c1.4,1.5,3.4,2.1,5.3,2.6c0.3,0.1,0.7,0.2,1,0.2c1.6,3.2,5.1,5.3,8.7,5.4c3.8,0.1,7-2.2,8.6-5.4c0.4-0.1,0.8-0.2,1.2-0.2c1.9-0.5,4-1.2,5.3-2.6C40.5,19.9,32.3,17.7,30.1,17.2zM12.7,24.9c-1.1-0.3-2.2-0.7-3.2-1.2c-4.3-2.1,0.8-4,3.5-4.8c-0.4,1-0.6,2.2-0.7,3.3C12.3,23.2,12.4,24,12.7,24.9zM22,30.4c-2.9,0.1-5.3-1.4-6.7-3.6c2.2,0.3,4.5,0.5,6.7,0.5s4.5-0.1,6.7-0.5C27.3,29,24.8,30.3,22,30.4zM29.5,25.3c-2.5,0.5-5.2,0.5-7.5,0.5c-2.4,0-5.1-0.1-7.5-0.6c-0.4-1-0.6-2-0.7-3c-0.1-4.6,3.9-8.1,8.2-8.2c4.6-0.1,8.1,3.9,8.2,8.2C30.1,23.3,29.9,24.4,29.5,25.3zM34.5,23.7c-1,0.5-2.2,1-3.3,1.3c0.3-0.9,0.4-1.8,0.5-2.7v-0.2c0-1.1-0.3-2.2-0.7-3.1c1.5,0.4,3,0.8,4.3,1.7C37.2,21.7,35.9,22.9,34.5,23.7z"/>
</svg>
