<svg width="40" height="40" xmlns="http://www.w3.org/2000/svg">
 <!-- Created with SVG-edit - http://svg-edit.googlecode.com/ -->
 <g>
  <title>Layer 1</title>
  <path id="svg_32" d="m21.522249,18.912331c-0.040134,0 -0.07267,0.032534 -0.07267,0.07267c0,0.040135 0.032535,0.07267 0.07267,0.07267c0.040135,0 0.07267,-0.032535 0.07267,-0.07267c0,-0.040136 -0.032536,-0.07267 -0.07267,-0.07267zm-0.006214,0.032669h0.0121v0.01287h-0.0121v-0.01287zm0.020023,0.07811h-0.013309c-0.00517,0 -0.007375,-0.0022 -0.007375,-0.00748v-0.034325c0,-0.00165 -0.00088,-0.00242 -0.00242,-0.00242h-0.0044v-0.011885h0.01331c0.005175,0 0.00737,0.00231 0.00737,0.00748v0.034435c0,0.001545 0.00088,0.00242 0.00242,0.00242h0.0044v0.011775z" stroke-linecap="null" stroke-linejoin="null" stroke-width="0" stroke="#000000" fill="#333333"/>
  <rect id="svg_37" height="27.549999" width="28.999999" y="3.2" x="3.05" fill-opacity="0" stroke-linecap="round" stroke-linejoin="round" stroke-width="4" stroke="#333333" fill="#333333"/>
  <rect id="svg_39" height="27.549999" width="28.999999" y="9.3" x="8.25" fill-opacity="0" stroke-linecap="round" stroke-linejoin="round" stroke-width="4" stroke="#333333" fill="#333333"/>
 </g>
</svg>