<svg width="40" height="40" xmlns="http://www.w3.org/2000/svg">
 <!-- Created with SVG-edit - http://svg-edit.googlecode.com/ -->
 <g>
  <title>Layer 1</title>
  <path id="svg_3" d="m-2.61336,-6.357406l-0.02751,-0.02751l0.027505,-0.02751l-0.01414,-0.01415l-0.02751,0.02751l-0.02751,-0.02751l-0.01414,0.01415l0.027505,0.02751l-0.02751,0.02751l0.01415,0.014145l0.027505,-0.02751l0.027505,0.02751" stroke-linecap="null" stroke-linejoin="null" stroke-width="0" stroke="#000000" fill="#333333"/>
  <g id="svg_67">
   <rect id="svg_48" height="9.187447" width="0.527435" y="6.909581" x="22.5968" stroke-linecap="null" stroke-linejoin="round" stroke-width="2" stroke="#333333" fill="none"/>
   <rect id="svg_47" height="9.411532" width="0.527435" y="7.133665" x="15.381293" stroke-linecap="null" stroke-linejoin="round" stroke-width="2" stroke="#333333" fill="none"/>
   <rect id="svg_53" height="11.921273" width="0.477435" y="8.802253" x="8.170969" stroke-linecap="round" stroke-linejoin="round" stroke-width="2" stroke="#333333" fill="none"/>
   <path id="svg_44" d="m7.214337,8.742632l0,0c0,-2.673223 2.167064,-4.840259 4.840219,-4.840259c2.673199,0 4.840206,2.167037 4.840206,4.840259l-2.420083,0c0,-1.336613 -1.083531,-2.420123 -2.420123,-2.420123c-1.336594,0 -2.420091,1.08351 -2.420091,2.420123l-2.420128,0z" stroke-linecap="null" stroke-linejoin="null" stroke-width="0" stroke="#000000" fill="#333333"/>
   <path id="svg_42" d="m14.474648,7.487756l0,0c0,-2.673222 2.167068,-4.840258 4.840219,-4.840258c2.673199,0 4.840214,2.167037 4.840214,4.840258l-2.420084,0c0,-1.336613 -1.083534,-2.420122 -2.42013,-2.420122c-1.336592,0 -2.420088,1.083509 -2.420088,2.420122l-2.420131,0z" stroke-linecap="null" stroke-linejoin="null" stroke-width="0" stroke="#000000" fill="#333333"/>
   <path id="svg_43" d="m21.734964,8.921899l0,0c0,-2.673221 2.167061,-4.840257 4.840218,-4.840257c2.673199,0 4.840212,2.167036 4.840212,4.840257l-2.420086,0c0,-1.336612 -1.08353,-2.420122 -2.420126,-2.420122c-1.336594,0 -2.420088,1.083509 -2.420088,2.420122l-2.42013,0z" stroke-linecap="null" stroke-linejoin="null" stroke-width="0" stroke="#000000" fill="#333333"/>
   <rect id="svg_50" height="13.877975" width="0.477435" y="11.749796" x="37.212265" stroke-linecap="null" stroke-linejoin="null" stroke-width="2" stroke="#333333" fill="none"/>
   <path id="svg_51" d="m28.995285,11.252359l0,0c0,-2.673221 2.167065,-4.840255 4.840221,-4.840255c2.673203,0 4.840214,2.167035 4.840214,4.840255l-2.420094,0c0,-1.336612 -1.08353,-2.420119 -2.42012,-2.420119c-1.336597,0 -2.42009,1.083508 -2.42009,2.420119l-2.420132,0z" stroke-linecap="null" stroke-linejoin="null" stroke-width="0" stroke="#000000" fill="#333333"/>
   <rect id="svg_52" height="8.784095" width="0.527435" y="8.61262" x="29.901941" stroke-linecap="null" stroke-linejoin="round" stroke-width="2" stroke="#333333" fill="none"/>
   <path d="m1.269265,18.781557l0,0c0,-2.673235 2.167052,-4.840217 4.840216,-4.840217c2.673126,0 1.523831,0.105429 1.703098,1.971972l-0.358529,0.268901c0,-1.336614 -0.008061,0.179237 -1.34457,0.179237c-1.336599,0 -2.520089,1.083488 -2.520089,2.420107l-2.320127,0z" id="svg_60" stroke-linecap="null" stroke-linejoin="null" stroke-width="0" stroke="#000000" fill="#333333"/>
   <rect transform="matrix(0,1.7926725718610808,-1.7926725718610808,0,40.23836705806344,-0.579456548089988) " id="svg_61" height="0.65" width="0.35" y="18.065934" x="8.577583" stroke-linecap="null" stroke-linejoin="null" stroke="#333333" fill="none"/>
   <rect id="svg_62" height="3.495711" width="0.327435" y="19.199753" x="2.275882" stroke-linecap="null" stroke-linejoin="null" stroke-width="2" stroke="#333333" fill="none"/>
   <path d="m13.721255,34.033035l-0.179274,1.434143c-12.35357,0.089649 -12.190108,-6.200598 -12.279741,-12.190281c0,-2.673063 0.01578,-2.151213 1.882312,-2.330473l0.089639,0.448166c-1.336616,0 0.358533,0.366598 0.358533,1.703041c0,3.577463 -0.798772,9.590876 9.770023,9.770136l0.358508,1.165268z" id="svg_63" stroke-linecap="null" stroke-linejoin="null" stroke-width="0" stroke="#000000" fill="#333333"/>
   <rect transform="matrix(0,1.7926725718610808,-1.7926725718610808,0,74.47842412221513,3.095500341015122) " id="svg_65" height="9.85" width="0.45" y="24.040931" x="17.108374" stroke-linecap="null" stroke-linejoin="null" stroke="#333333" fill="none"/>
   <path d="m37.395248,21.382067l1.353157,0.085144c0.035534,9.751337 -0.135357,13.528021 -6.567398,13.971582c-2.667345,-0.542339 -1.527473,-0.453701 -1.82836,-2.304523l0.160891,0.156387c0.087368,1.333759 0.444561,-0.448246 1.778137,-0.535603c3.215984,-0.356319 4.135036,-2.49651 4.053898,-10.93906l1.049675,-0.433928z" id="svg_66" stroke-linecap="null" stroke-linejoin="null" stroke-width="0" stroke="#000000" fill="#333333"/>
  </g>
 </g>
</svg>