<svg width="40" height="40" xmlns="http://www.w3.org/2000/svg">
 <!-- Created with SVG-edit - http://svg-edit.googlecode.com/ -->
 <g>
  <title>Layer 1</title>
  <path id="svg_1" d="m19.535639,7.830914c-1.958813,1.959976 -2.721861,4.635306 -2.355459,7.18037l3.631474,-3.631474c0.004653,-0.005816 0.016285,-0.009306 0.018611,-0.013958c0.244272,-0.468767 0.539721,-0.917761 0.932884,-1.309753c2.063504,-2.065826 5.409995,-2.064666 7.476967,0c2.064666,2.062336 2.066992,5.411166 0.002326,7.478145c-0.395486,0.395486 -0.845643,0.689775 -1.31557,0.935209c-0.004653,0.002326 -0.006979,0.006979 -0.011632,0.011632l-3.632645,3.632645c2.545054,0.36757 5.225052,-0.395486 7.183855,-2.353132c3.294153,-3.294153 3.291827,-8.634341 0,-11.9285c-3.296262,-3.294137 -8.63671,-3.294137 -11.930812,-0.001182zm-1.290325,20.316024c-0.243108,0.471093 -0.537396,0.920086 -0.931718,1.31557c-2.064666,2.063504 -5.415813,2.063504 -7.480464,0c-2.064666,-2.063504 -2.064666,-5.412318 0,-7.47931c0.394323,-0.393159 0.843316,-0.687449 1.31208,-0.930555c0.004653,-0.006979 0.005816,-0.013958 0.012795,-0.018611l3.630309,-3.632645c-2.543897,-0.36757 -5.221566,0.397813 -7.179196,2.354295c-3.292994,3.292994 -3.291827,8.634341 0,11.9285c3.295314,3.292994 8.635505,3.292994 11.930825,0c1.958813,-1.958813 2.724193,-4.636474 2.353132,-7.182691l-3.634969,3.632645c-0.003529,0.008163 -0.008635,0.010654 -0.012795,0.012802zm-5.951299,-3.700958l2.555529,2.555529c0.624636,0.624636 1.648242,0.624636 2.271708,0l9.656791,-9.656791c0.626961,-0.623472 0.626961,-1.648242 0.002326,-2.270546l-2.557852,-2.555529c-0.623472,-0.626961 -1.647078,-0.626961 -2.270546,-0.002326l-9.656791,9.657963c-0.625727,0.624539 -0.625727,1.648133 -0.001166,2.2717z" stroke-width="0" stroke="#000000" fill="#333333"/>
 </g>
</svg>