<svg width="40" height="40" xmlns="http://www.w3.org/2000/svg">
 <!-- Created with SVG-edit - http://svg-edit.googlecode.com/ -->
 <g>
  <title>Layer 1</title>
  <!-- Created with SVG-edit - http://svg-edit.googlecode.com/ -->
  <path id="svg_2" d="m-32.332508,-13.80187l0.43248,-0.432483l0,0.216241l0.626778,0l0,-0.216241l0.43248,0.432483l-0.43248,0.43248l0,-0.21624l-0.626778,0l0,0.21624l-0.43248,-0.43248z" stroke-linecap="null" stroke-linejoin="null" stroke-width="0" stroke="#000000" fill="#333333"/>
  <g transform="rotate(11.379088401794434 20.140645980834922,22.15313911437988) " id="svg_12">
   <path id="svg_11" d="m1.898106,18.98774l0,0c-1.574642,9.189198 4.524107,17.902294 13.621791,19.461254l0,0l0,0c4.368893,0.748646 8.859171,-0.286324 12.483259,-2.877308c3.623959,-2.590919 6.08465,-6.525614 6.840818,-10.938404l0.40731,-2.376928l4.706543,0.806503l-7.783875,-11.120712l-11.042334,7.894691l4.706554,0.806507l-0.407305,2.376926c-0.674849,3.938234 -4.382673,6.589157 -8.281752,5.921017l0,0l0,0c-3.899067,-0.668137 -6.512755,-4.4023 -5.837906,-8.340534l-9.413106,-1.613012z" stroke-linecap="null" stroke-linejoin="null" stroke-width="0" stroke="#333333" fill="#333333"/>
   <path id="svg_9" d="m28.618336,35.000637l0,0c-7.229765,5.701107 -17.712317,4.461834 -23.413376,-2.767864l0,0l0,0c-2.737764,-3.471853 -3.9842,-7.889004 -3.465156,-12.279991c0.519066,-4.390835 2.761179,-8.395632 6.233025,-11.133394l1.870088,-1.474679l-2.949353,-3.740172l13.379069,1.581637l-1.58164,13.379073l-2.949357,-3.74018l-1.87009,1.474679c-3.098477,2.443338 -3.629584,6.935814 -1.186233,10.034307l0,0l0,0c2.443349,3.098494 6.935829,3.629566 10.034309,1.186226l5.898714,7.480358z" stroke-linecap="null" stroke-linejoin="null" stroke-width="0" stroke="#333333" fill="#333333"/>
  </g>
 </g>
</svg>