<svg width="40" height="40" xmlns="http://www.w3.org/2000/svg">
 <!-- Created with SVG-edit - http://svg-edit.googlecode.com/ -->
 <g>
  <title>Layer 1</title>
  <path transform="rotate(-84.16047668457031 6.876455783843994,21.172449111938477) " id="svg_1" d="m23.315536,32.662666c2.38779,-2.905818 2.867716,-6.872086 1.568631,-10.206538l-4.793989,5.917398l-4.725616,-0.97278l-1.565991,-4.817992l4.782154,-5.903481c-3.289787,-0.876755 -6.913545,0.180918 -9.290815,3.075601c-2.507444,3.051943 -2.917681,7.277061 -1.366142,10.706147l-12.496339,15.209641c-1.329326,1.617125 -1.167598,4.069255 0.360272,5.476236c1.527869,1.40559 3.844658,1.235807 5.173983,-0.381319l12.481991,-15.1943c3.435579,1.171766 7.352692,0.157232 9.87186,-2.908613z" stroke-width="0" stroke="#000000" fill="#333333"/>
  <circle id="svg_3" r="6" cy="29.96875" cx="9.46875" stroke-linecap="null" stroke-linejoin="null" stroke-width="0" stroke="#000000" fill="#cc0000"/>
  <circle id="svg_6" r="6" cy="9.28125" cx="30.90625" stroke-linecap="null" stroke-linejoin="null" stroke-width="0" stroke="#000000" fill="#cc0000"/>
 </g>
</svg>