<svg width="40" height="40" xmlns="http://www.w3.org/2000/svg" xmlns:xlink="http://www.w3.org/1999/xlink">
 <!-- Created with SVG-edit - http://svg-edit.googlecode.com/ -->
 <defs>
  <svg id="svg_1" width="48" viewBox="0 0 48 48" height="48">
   <path d="m24,6c-9.94,0 -18,8.06 -18,18s8.06,18 18,18c1.66,0 3,-1.34 3,-3c0,-0.779999 -0.290001,-1.48 -0.780001,-2.009998c-0.469999,-0.530003 -0.75,-1.220001 -0.75,-1.990002c0,-1.66 1.34,-3 3,-3h3.530001c5.52,0 10,-4.48 10,-10c0,-8.84 -8.060001,-16 -18,-16zm-11,18c-1.66,0 -3,-1.34 -3,-3s1.34,-3 3,-3s3,1.34 3,3s-1.34,3 -3,3zm6,-8c-1.66,0 -3,-1.34 -3,-3s1.34,-3 3,-3s3,1.34 3,3s-1.34,3 -3,3zm10,0c-1.66,0 -3,-1.34 -3,-3s1.34,-3 3,-3s3,1.34 3,3s-1.34,3 -3,3zm6,8c-1.66,0 -3,-1.34 -3,-3s1.34,-3 3,-3s3,1.34 3,3s-1.34,3 -3,3z"/>
   <path fill="none" d="m0,0h48v48h-48l0,-48z"/>
  </svg>
 </defs>
 <g>
  <title>Layer 1</title>
  <use fill="#333333" stroke-width="0" x="0" y="0" transform="rotate(76.88493347167969 19.911972045898438,20.46602821350098) matrix(1.0844585730027105,0,0,1.0844585730027105,-6.115033749491438,-5.560977998300417) " id="svg_2" xlink:href="#svg_1"/>
 </g>
</svg>