<!--?xml version="1.0" encoding="UTF-8" standalone="no"?-->
<svg version="1.1" xmlns="http://www.w3.org/2000/svg" xmlns:xlink="http://www.w3.org/1999/xlink" width="100%" height="100%" v="">
  <title>Lively Web Logo</title>
  <description>http://lively-web.org</description>
  <defs></defs>
  <g id="logo" transform="scale(2)">
    <path transform="translate(-15, 2)" d="M57.1131079,14.707 C56.3051079,17.017 55.6071079,19.362 54.7991079,21.671 C54.3611079,22.926 53.8941079,23.518 53.2011079,23.518 C52.7431079,23.518 52.1851079,23.26 51.4741079,22.767 C49.4011079,21.32 47.4031079,19.765 45.3181079,18.328 C44.2271079,17.573 43.1851079,17.196 42.2011079,17.196 C40.8471079,17.196 39.5981079,17.904 38.4551079,19.324 C37.3161079,20.737 36.2691079,22.231 35.2321079,23.725 C33.2761079,26.525 33.6441079,28.85 36.3711079,30.903 C38.3311079,32.377 40.3511079,33.768 42.3091079,35.244 C44.1511079,36.629 44.1281079,37.467 42.2371079,38.87 C40.2061079,40.382 38.1051079,41.8 36.1121079,43.353 C33.7341079,45.203 33.3591079,47.533 35.0161079,50.014 C36.1121079,51.657 37.2641079,53.271 38.5191079,54.797 C39.6651079,56.198 40.8721079,56.887 42.1821079,56.887 C43.1801079,56.887 44.2361079,56.488 45.3801079,55.695 C47.3301079,54.344 49.2171079,52.901 51.1421079,51.519 C52.0871079,50.838 52.7441079,50.477 53.2531079,50.477 C53.9471079,50.477 54.3641079,51.16 54.8701079,52.638 C55.6791079,55.028 56.3851079,57.458 57.2551079,59.825 C58.0511079,61.995 59.5051079,63.094 61.4401079,63.094 C62.0181079,63.094 62.6391079,62.996 63.3011079,62.8 C64.9641079,62.307 66.6201079,61.78 68.2611079,61.216 C71.7211079,60.031 72.8041079,57.944 71.7361079,54.407 C71.0281079,52.066 70.2311079,49.751 69.4451079,47.437 C68.8041079,45.55 69.5561079,44.737 71.4381079,44.734 C71.5971079,44.734 71.7601079,44.732 71.9221079,44.732 C73.1971079,44.732 74.4731079,44.743 75.7511079,44.743 C76.9241079,44.743 78.0961079,44.734 79.2701079,44.698 C82.3941079,44.6 84.0431079,42.909 84.1441079,39.781 C84.1951079,38.119 84.1661079,36.457 84.1531079,34.795 C84.1211079,31.164 82.4641079,29.391 78.8471079,29.25 C78.0181079,29.219 77.1881079,29.21 76.3591079,29.21 C75.1301079,29.21 73.8991079,29.23 72.6691079,29.23 L72.2011079,29.23 C69.0081079,29.214 68.7631079,28.838 69.7541079,25.742 C70.6431079,22.969 71.4921079,20.182 72.1611079,18.032 C72.0961079,15.354 71.0281079,13.844 68.9461079,13.075 C67.1721079,12.422 65.3571079,11.865 63.5381079,11.334 C62.7771079,11.111 62.0821079,11 61.4511079,11 C59.3821079,11 57.9871079,12.207 57.1131079,14.707 Z M62.1072198,15.3244874 C63.662632,15.7795081 65.4945841,16.3315332 67.2426758,16.9765625 C67.4972522,17.0705668 67.6120612,17.1535705 67.6310297,17.1735715 C67.6310297,17.1755715 67.7128935,17.2975771 67.7658054,17.6605936 L67.3425097,19.0286558 C66.8123917,20.7477339 66.4147256,22.5323424 65.7987504,24.4574299 C65.2486656,26.1685077 64.4240375,28.7536252 66.0393501,30.9837265 C67.6516676,33.2108278 70.3102445,33.2228283 72.0693179,33.2288286 L72.5565073,33.2318287 C73.1814675,33.2318287 73.8064278,33.2248284 74.4323864,33.2208282 C75.0343848,33.216828 74.7196057,33.1777325 75.3216041,33.1777325 C76.2290943,33.1777325 74.8326659,33.1709924 75.5115364,33.1969935 C76.3661146,33.228995 76.6905748,33.3910024 76.7155333,33.3910024 C76.7404918,33.4340043 76.9132044,33.77802 76.9201928,34.7320633 L76.9291778,35.5501005 C76.9431546,36.9391636 76.9571313,38.2492232 76.9142028,39.5512824 C76.900226,40.0403046 76.8203589,40.3173172 76.773437,40.4243221 C76.6726047,40.4653239 76.4150332,40.5383272 75.963784,40.5533279 C74.9844134,40.5833293 76.0793434,40.6160706 74.714614,40.6160706 C74.081667,40.6160706 74.3704893,40.6461657 73.7395391,40.6441656 C73.0976071,40.6401655 72.4506834,40.6361653 71.8107481,40.6361653 L71.3165702,40.6391654 C68.3794568,40.6441656 66.8420147,41.9352243 66.0683019,43.0172735 C65.3015776,44.0953225 64.5807768,45.954407 65.5102304,48.6935315 L65.7508301,49.3915633 C66.4316973,51.4066548 65.5161236,48.3005423 66.1271071,50.3386349 C66.3517333,51.0806686 66.3577234,51.4616859 66.3467417,51.6016923 C66.2409177,51.6906964 65.935426,51.903706 65.2196169,52.1487172 C63.6372495,52.6917419 62.027927,53.2057652 60.4275895,53.6807868 C60.0582041,53.7897918 59.8265894,53.8067925 59.7207655,53.8067925 C59.5879864,53.729789 59.463194,53.5377803 59.3344083,53.1877644 C58.8362371,51.8277026 59.1361487,52.9436411 58.668926,51.4825746 C58.3604393,50.5175308 58.9371662,52.2476931 58.6107093,51.2876494 C58.1993937,50.0745943 56.9474765,46.3824265 53.1727566,46.3824265 C51.3647646,46.3824265 49.9201681,47.3124687 48.7071861,48.1835083 C47.9394634,48.7375335 49.349414,47.7210458 48.586683,48.2830714 C47.417628,49.1461106 48.8520361,48.0521277 47.717923,48.8401635 C47.2796522,49.1441773 47.0101006,49.2531823 46.8952916,49.2921841 C46.7964561,49.224181 46.5888015,49.0571734 46.2982849,48.7021572 C45.267999,47.4421 44.2017729,45.9840337 43.0367113,44.2359542 C42.7941149,43.8719377 42.7272262,43.6519277 42.7092561,43.5689239 C42.7521846,43.4949205 42.8899554,43.3019118 43.2493575,43.0178989 C44.3734872,42.1428591 42.9899944,43.2228414 44.2159547,42.3458015 C45.0665396,41.7347737 43.7474378,42.6992591 44.5870409,42.0732306 C45.4226507,41.4512023 47.6429567,39.7991272 47.6489468,36.9969999 C47.6599285,34.2088731 45.4935328,32.5767989 44.6788881,31.9607709 C43.6795508,31.2097368 42.66424,30.4737034 41.6449358,29.7416701 C40.6755486,29.0436383 42.6391524,30.5959291 41.6857386,29.8768964 C41.2055376,29.5138799 41.0108614,29.2668687 40.9419761,29.1598638 C40.9759196,29.0368582 41.0857369,28.7388447 41.4271688,28.2438222 C42.4065394,26.8417585 43.4128652,25.3926926 44.4790913,24.0696325 C44.7805896,23.6926153 45.0072126,23.5176074 45.1100415,23.4596047 C45.2278455,23.486606 45.494402,23.5896106 45.8927393,23.8646231 C46.9230252,24.5776555 44.9973583,23.0663667 46.0605894,23.8514023 C47.0399599,24.5734352 48.0522757,25.3154689 49.0875533,26.0395018 C49.9960418,26.6755307 51.4036999,27.518569 53.120843,27.518569 C54.8619463,27.518569 57.214033,26.726533 58.5298439,22.9593618 C58.9441546,21.7683077 59.3345051,20.5702532 59.7238574,19.3701986 C60.0872528,18.2421474 60.2533042,17.2645756 60.6416581,16.1455247 C60.8543043,15.5424973 61.0370003,15.2604845 61.1238558,15.1494795 C61.2935735,15.1494795 61.5950719,15.1714805 62.1072198,15.3244874 Z" id="engine" fill="#ff7700"></path>
  </g>
</svg>
