<?xml version="1.0" encoding="utf-8"?>
<!DOCTYPE svg PUBLIC "-//W3C//DTD SVG 1.1//EN" "http://www.w3.org/Graphics/SVG/1.1/DTD/svg11.dtd"  [<!ENTITY cycle "2s" > <!ENTITY theSpline ".5 0 .5 1; .5 0 .5 1"> <!ENTITY theColorSpline ".5 0 .5 1; .5 0 .5 1; .5 0 .5 1; .5 0 .5 1">]>

<svg version="1.1" id="Logo" xmlns="http://www.w3.org/2000/svg" xmlns:xlink="http://www.w3.org/1999/xlink" viewBox="-250 -200 500 500" xml:space="preserve" width="160" height="160">


<path fill="#515151" d="M126.14-36v9c9,0,9,9,9,9v36.001c0,0,0,8.998-9,8.999v9L144,27v-54.001L126.14-36z">
	<animate dur="&cycle;" begin="0" repeatCount="indefinite" attributeName="d" keyTimes="0; .5; 1"  calcMode="spline"  keySplines="&theSpline;" values="
	M126.14-36v9c9,0,9,9,9,9v36.001c0,0,0,8.998-9,8.999v9L144,27v-54.001L126.14-36z;
	M67.14-36v9c9,0,9,9,9,9v36.001c0,0,0,8.998-9,8.999v9L144,27v-54.001L67.14-36z;
	M126.14-36v9c9,0,9,9,9,9v36.001c0,0,0,8.998-9,8.999v9L144,27v-54.001L126.14-36z
	"/>
	<animate  dur="8s" begin="0" repeatCount="indefinite" attributeName="fill"  keyTimes="0; .25; .25; 1" values="#009989; #009989; #515151; #515151;"/>
</path>



<path fill="#515151" d="M4.742-131.091l8.559,2.781c2.781-8.56,11.341-5.778,11.341-5.778l34.239,11.125c0,0,8.558,2.781,5.777,11.34l8.56,2.781l-3.04-19.767L18.82-145.296L4.742-131.091z">
	<animate dur="&cycle;" begin="-0.4" repeatCount="indefinite" attributeName="d" keyTimes="0; .5; 1"  calcMode="spline"  keySplines="&theSpline;" values="
	M4.742-131.091l8.559,2.781c2.781-8.56,11.341-5.778,11.341-5.778l34.239,11.125c0,0,8.558,2.781,5.777,11.34l8.56,2.781l-3.04-19.767L18.82-145.296L4.742-131.091z;
	M-13.49-74.979l8.559,2.781c2.781-8.559,11.341-5.778,11.341-5.778l34.239,11.125c0,0,8.558,2.78,5.777,11.34l8.561,2.781l15.191-75.879L18.82-145.296L-13.49-74.979z;
	M4.742-131.091l8.559,2.781c2.781-8.56,11.341-5.778,11.341-5.778l34.239,11.125c0,0,8.558,2.781,5.777,11.34l8.56,2.781l-3.04-19.767L18.82-145.296L4.742-131.091z"/>
	
	<animate  dur="8s" begin="1.6" repeatCount="indefinite" attributeName="fill"  keyTimes="0; .25; .25; 1" values="#009989; #009989; #515151; #515151;"/>
	
</path>


<path fill="#515151" d="M-123.21-45.021l5.29-7.28c-7.281-5.29-1.991-12.571-1.991-12.571l21.161-29.125c0,0,5.289-7.28,12.57-1.99
	l5.29-7.281l-19.739-3.217l-31.74,43.688L-123.21-45.021z">
	<animate dur="&cycle;" begin="-0.8" repeatCount="indefinite" attributeName="d" keyTimes="0; .5; 1"  calcMode="spline"  keySplines="&theSpline;" values="
	M-123.21-45.021l5.29-7.28c-7.281-5.29-1.991-12.571-1.991-12.571l21.161-29.125c0,0,5.289-7.28,12.57-1.99
	l5.29-7.281l-19.739-3.217l-31.74,43.688L-123.21-45.021z;
	M-75.477-10.341l5.289-7.281c-7.28-5.29-1.99-12.571-1.99-12.571l21.161-29.125c0,0,5.288-7.279,12.569-1.99
	l5.291-7.282l-67.472-37.896l-31.74,43.688L-75.477-10.341z;
	M-123.21-45.021l5.29-7.28c-7.281-5.29-1.991-12.571-1.991-12.571l21.161-29.125c0,0,5.289-7.28,12.57-1.99
	l5.29-7.281l-19.739-3.217l-31.74,43.688L-123.21-45.021z
	"/>
	<animate  dur="8s" begin="3.2" repeatCount="indefinite" attributeName="fill"  keyTimes="0; .25; .25; 1" values="#009989; #009989; #515151; #515151;"/>
</path>	
	
<path fill="#515151"  d="M-80.89,103.267l-5.29-7.281c-7.28,5.29-12.57-1.991-12.57-1.991l-21.161-29.126c0,0-5.289-7.28,1.991-12.57
	l-5.29-7.281l-9.159,17.779l31.741,43.687L-80.89,103.267z">
	<animate dur="&cycle;" begin="-1.2" repeatCount="indefinite" attributeName="d" keyTimes="0; .5; 1"  calcMode="spline"  keySplines="&theSpline;" values="
	M-80.89,103.267l-5.29-7.281c-7.28,5.29-12.57-1.991-12.57-1.991l-21.161-29.126c0,0-5.289-7.28,1.991-12.57
	l-5.29-7.281l-9.159,17.779l31.741,43.687L-80.89,103.267z;
	M-33.158,68.587l-5.29-7.28c-7.28,5.289-12.571-1.992-12.571-1.992l-21.16-29.126
	c0,0-5.289-7.279,1.991-12.569l-5.291-7.283l-56.891,52.459l31.741,43.687L-33.158,68.587z;
	M-80.89,103.267l-5.29-7.281c-7.28,5.29-12.57-1.991-12.57-1.991l-21.161-29.126c0,0-5.289-7.28,1.991-12.57
	l-5.29-7.281l-9.159,17.779l31.741,43.687L-80.89,103.267z
	"/>
	<animate  dur="8s" begin="4.8" repeatCount="indefinite" attributeName="fill"  keyTimes="0; .25; .25; 1" values="#009989; #009989; #515151; #515151;"/>
</path>	

<path fill="#515151" d="M73.217,108.842l-8.56,2.781c2.781,8.558-5.778,11.339-5.778,11.339l-34.24,11.125
	c0,0-8.558,2.781-11.339-5.778l-8.56,2.781l14.079,14.205l51.356-16.688L73.217,108.842z">
	<animate dur="&cycle;" begin="-1.6" repeatCount="indefinite" attributeName="d" keyTimes="0; .5; 1"  calcMode="spline"  keySplines="&theSpline;" values="
	M73.217,108.842l-8.56,2.781c2.781,8.558-5.778,11.339-5.778,11.339l-34.24,11.125
	c0,0-8.558,2.781-11.339-5.778l-8.56,2.781l14.079,14.205l51.356-16.688L73.217,108.842z;
	M54.984,52.729l-8.558,2.782c2.78,8.558-5.779,11.34-5.779,11.34L6.407,77.975c0,0-8.557,2.781-11.338-5.778
	l-8.562,2.782l32.312,70.316l51.356-16.688L54.984,52.729z;
	M73.217,108.842l-8.56,2.781c2.781,8.558-5.778,11.339-5.778,11.339l-34.24,11.125
	c0,0-8.558,2.781-11.339-5.778l-8.56,2.781l14.079,14.205l51.356-16.688L73.217,108.842z
	"/>
	<animate  dur="8s" begin="6.4" repeatCount="indefinite" attributeName="fill"  keyTimes="0; .25; .25; 1" values="#009989; #009989; #515151; #515151;"/>
</path>	


<path fill="none" stroke="#515151" stroke-width="20" stroke-miterlimit="10" d="M-79.414-13.193
	c-7.278-5.292-43.685-31.741-43.685-31.741s-14.56-10.581-3.981-25.144c10.581-14.561,10.581-14.561,21.158-29.125
	c10.582-14.561,25.146-3.98,25.146-3.98c14.562,10.58,36.404,26.447,43.686,31.74c7.28,5.289,22.318,0.402,25.101-8.158
	c2.781-8.557,16.688-51.355,16.688-51.355s5.561-17.117,22.682-11.557c17.117,5.564,17.117,5.564,34.236,11.124
	c17.12,5.563,11.559,22.683,11.559,22.683c-5.562,17.12-13.906,42.799-16.688,51.358C53.705-48.793,63.002-35.999,72-36
	c9,0.002,53.998,0.001,53.998,0.001s18,0,18.002,18.001c-0.002,18-0.002,18,0,35.998c-0.003,18.002-18.003,18.002-18.003,18.002
	C107.998,36.002,81,36.002,72,36c-9,0-18.296,12.793-15.514,21.354c2.78,8.561,16.688,51.355,16.688,51.355
	s5.561,17.117-11.558,22.682c-17.12,5.562-17.12,5.562-34.237,11.125c-17.121,5.561-22.685-11.557-22.685-11.557
	C-0.867,113.838-6.428,96.72-11.99,79.603c-2.781-8.56-17.822-13.446-25.101-8.155c-7.282,5.289-43.688,31.738-43.688,31.738
	s-14.562,10.581-25.142-3.981c-10.579-14.562-10.579-14.562-21.162-29.124c-10.578-14.562,3.983-25.143,3.983-25.143
	c14.563-10.582,36.403-26.449,43.686-31.74C-72.129,7.908-72.131-7.906-79.414-13.193z"/>

<g transform="translate(-100,-280)">
	<path fill="#515151" d="M-81.863,542.315v-53.909h10.292v45.17h22.054v8.739H-81.863z"/>
	<path fill="#515151" d="M-17.577,543.377c-16.826,0-28.588-11.598-28.669-28.016c0-16.663,11.599-27.936,28.669-27.936
		c16.99,0,28.588,11.272,28.588,27.936C11.011,531.779-0.833,543.377-17.577,543.377z M-17.577,496.33
		c-10.21,0-17.725,8.168-17.725,19.031c0,10.945,7.515,19.031,17.725,19.031c10.128,0,17.643-8.086,17.643-19.031
		C0.066,504.498-7.449,496.33-17.577,496.33z"/>
	<path fill="#515151" d="M51.201,542.315l-4.248-13.313H28.902l-4.411,13.313H13.71l19.521-53.909h9.23l19.521,53.909H51.201z
		 M37.887,500.74l-6.208,19.521h12.497L37.887,500.74z"/>
	<path fill="#515151" d="M110.748,534.393c-4.982,5.309-12.088,7.923-21.809,7.923H69.01v-53.909h20.012
		c10.21,0,16.581,2.287,21.89,7.924c4.656,4.982,7.27,11.843,7.27,18.867C118.181,522.385,115.486,529.328,110.748,534.393z
		 M100.865,500.658c-2.859-2.123-7.024-3.186-12.905-3.186h-8.168v35.776h8.168c12.252,0,19.113-6.452,19.113-17.97
		C107.073,509.153,104.704,503.518,100.865,500.658z"/>
	<path fill="#515151" d="M127.333,542.315v-53.909h10.292v53.909H127.333z"/>
	<path fill="#515151" d="M188.023,542.806l-23.116-34.878c-0.163-0.244-0.572-0.98-1.143-2.123
		c-0.409-0.654-0.572-1.062-0.654-1.145c-0.327-0.652-0.49-0.979-0.735-1.878v39.533h-9.802v-53.909h11.844l22.625,35.449
		c0.082,0.164,0.327,0.572,0.572,1.144s0.408,0.898,0.49,1.062l0.49,1.389l0.49,0.98v-40.023h9.72v54.399H188.023z"/>
	<path fill="#515151" d="M253.126,541.58c-5.718,1.389-9.066,1.797-13.559,1.797c-17.888,0-30.303-11.436-30.303-28.098
		c0-8.168,3.104-15.274,8.903-20.584c5.555-5.063,11.762-7.188,21.074-7.188c3.92,0,7.841,0.408,11.272,1.226
		c2.614,0.653,4.247,1.226,8.004,2.858l-2.45,8.576c-1.96-0.734-3.431-1.225-4.411-1.551c-3.839-1.308-7.678-1.961-11.109-1.961
		c-12.088,0-20.501,7.433-20.501,18.133c0,11.027,9.23,19.439,21.237,19.439c2.45,0,3.839-0.244,7.024-1.143V518.22h10.292v22.054
		C256.148,540.846,254.351,541.336,253.126,541.58z"/>
	<path fill="#515151" d="M295.278,543.377c-3.594,0-6.534-2.939-6.534-6.534c0-3.676,2.94-6.534,6.534-6.534
		c3.595,0,6.453,2.858,6.453,6.534C301.731,540.438,298.872,543.377,295.278,543.377z"/>
	<path fill="#515151" d="M315.781,543.377c-3.594,0-6.535-2.939-6.535-6.534c0-3.676,2.941-6.534,6.535-6.534
		s6.452,2.858,6.452,6.534C322.233,540.438,319.374,543.377,315.781,543.377z"/>
	<path fill="#515151" d="M336.283,543.377c-3.594,0-6.535-2.939-6.535-6.534c0-3.676,2.941-6.534,6.535-6.534
		s6.452,2.858,6.452,6.534C342.736,540.438,339.877,543.377,336.283,543.377z"/>
</g>

</svg>
